M48
;GenerationSoftware,Autodesk,EAGLE,9.6.2*%
;CreationDate,2022-03-13T15:58:33Z*%
FMAT,2
ICI,OFF
METRIC,TZ,000.000
T8C0.300
T7C0.400
T6C0.650
T5C1.016
T4C1.100
T3C1.600
T2C3.302
T1C3.800
%
G90
M71
T1
X138085Y74719
X5679Y74719
X41747Y74719
X29881Y74719
X102017Y74719
X77815Y74719
X113883Y74719
X65949Y74719
T2
X33020Y86360
X2540Y86360
X33020Y2540
X2540Y2540
X69088Y86360
X38608Y86360
X69088Y2540
X38608Y2540
X105156Y86360
X74676Y86360
X105156Y2540
X74676Y2540
X141224Y86360
X110744Y86360
X141224Y2540
X110744Y2540
T3
X113484Y26670
X5280Y26670
X41348Y26670
X77416Y26670
T4
X30280Y26670
X66348Y26670
X102416Y26670
X138484Y26670
T5
X109474Y33020
X109474Y35560
X109474Y38100
X109474Y40640
X1270Y40640
X1270Y45720
X1270Y43180
X1270Y48260
X1270Y50800
X1270Y33020
X1270Y35560
X1270Y38100
X37338Y33020
X37338Y45720
X37338Y43180
X37338Y48260
X37338Y50800
X37338Y35560
X37338Y38100
X37338Y40640
X73406Y43180
X73406Y48260
X73406Y50800
X73406Y33020
X73406Y35560
X73406Y38100
X73406Y40640
X73406Y45720
X109474Y45720
X109474Y43180
X109474Y48260
X109474Y50800
T6
X14890Y5286
X20670Y5286
X50958Y5286
X56738Y5286
X92806Y5286
X87026Y5286
X128874Y5286
X123094Y5286
T7
X58166Y1636
X13462Y1636
X58166Y5816
X49530Y5816
X13462Y5816
X121666Y1636
X22098Y1636
X130302Y5816
X121666Y5816
X85598Y1636
X94234Y1636
X94234Y5816
X85598Y5816
X22098Y5816
X49530Y1636
X130302Y1636
T8
X27940Y20320
X6350Y20320
X5080Y34290
X8890Y34290
X12700Y34290
X16510Y34290
X20320Y34290
X24130Y34290
X26670Y34290
X8890Y39370
X5080Y39370
X12700Y39370
X16510Y39370
X20320Y39370
X24130Y39370
X5080Y41910
X12700Y41910
X16510Y41910
X20320Y41910
X5080Y44450
X8890Y44450
X20320Y45720
X20320Y48260
X16510Y48260
X12700Y48260
X8890Y46990
X5080Y46990
X5080Y49530
X8890Y49530
X5080Y52070
X8890Y52070
X12700Y52070
X16510Y52070
X19050Y50800
X1905Y15875
X29845Y15748
X28575Y12065
X30480Y34290
X30480Y29210
X28575Y13970
X24130Y6350
X26670Y7620
X8890Y7620
X19050Y20828
X16510Y20828
X6350Y13970
X7620Y41910
X10160Y41910
X18520Y7471
X17272Y5207
X18034Y5207
X17780Y9779
X24130Y3810
X15596Y4089
X19812Y4572
X3048Y13208
X7620Y13208
X30353Y19685
X32385Y15367
X31877Y19685
X32639Y13970
X12954Y12065
X9970Y24130
X7620Y43180
X10795Y24130
X10160Y48260
X15240Y39370
X15240Y24130
X25654Y27940
X17780Y16764
X18288Y45720
X17018Y16764
X17780Y50800
X23495Y12065
X12065Y12065
X3810Y6350
X29845Y6350
X29083Y10033
X33147Y10033
X29210Y3810
X43688Y86360
X43688Y83820
X44958Y82550
X44958Y81280
X44958Y78740
X46228Y77470
X48768Y77470
X50038Y78740
X50038Y81280
X50038Y82550
X51308Y83820
X51308Y86360
X56388Y86360
X56388Y83820
X57658Y82550
X57658Y81280
X57658Y78740
X58928Y77470
X61468Y77470
X62738Y78740
X62738Y81280
X62738Y82550
X64008Y83820
X64008Y86360
X43688Y85090
X44958Y80010
X51308Y85090
X50038Y80010
X47498Y77470
X56388Y85090
X64008Y85090
X62738Y80010
X57658Y80010
X60198Y77470
X43244Y29210
X52070Y29210
X55245Y29210
X58483Y29210
X60833Y29210
X45275Y24130
X53276Y24130
X47625Y24130
X64833Y29210
X55626Y24130
X56451Y24130
X58864Y24130
X59626Y24130
X62039Y24130
X68453Y25400
X68453Y20955
X39243Y25400
X39243Y20955
X44958Y13970
X47498Y13970
X60198Y13970
X62738Y13970
X51308Y12700
X56388Y12700
X51308Y17145
X55118Y18161
X56388Y17145
X38608Y11430
X37973Y10160
X41148Y8255
X43688Y5080
X50546Y7366
X57150Y7366
X69723Y11430
X68453Y6350
X53848Y7493
X53848Y12700
X52578Y18161
X47498Y5080
X47498Y1270
X60198Y1270
X65278Y1270
X43688Y1270
X37338Y5080
X70358Y5080
X62738Y11430
X44958Y11430
X52070Y9398
X55626Y9398
X44958Y17780
X62738Y17780
X69723Y19685
X67183Y17780
X60198Y17780
X64008Y20320
X42418Y20320
X41148Y34290
X44958Y34290
X48768Y34290
X52578Y34290
X56388Y34290
X60198Y34290
X62738Y34290
X44958Y39370
X41148Y39370
X48768Y39370
X52578Y39370
X56388Y39370
X60198Y39370
X41148Y41910
X48768Y41910
X52578Y41910
X56388Y41910
X41148Y44450
X44958Y44450
X56388Y45720
X56388Y48260
X52578Y48260
X48768Y48260
X44958Y46990
X41148Y46990
X41148Y49530
X44958Y49530
X41148Y52070
X44958Y52070
X48768Y52070
X52578Y52070
X55118Y50800
X37973Y15875
X65913Y15748
X64643Y12065
X66548Y34290
X66548Y29210
X64643Y13970
X60198Y6350
X62738Y7620
X44958Y7620
X55118Y20828
X52578Y20828
X42418Y13970
X43688Y41910
X46228Y41910
X54588Y7471
X53340Y5207
X54102Y5207
X53848Y9779
X60198Y3810
X51664Y4089
X55880Y4572
X39116Y13208
X43688Y13208
X66421Y19685
X68453Y15367
X67945Y19685
X68707Y13970
X49022Y12065
X46037Y24130
X43688Y43180
X46863Y24130
X46228Y48260
X51308Y39370
X51308Y24130
X61722Y27940
X53848Y16764
X54356Y45720
X53086Y16764
X53848Y50800
X59563Y12065
X48133Y12065
X39878Y6350
X65913Y6350
X65151Y10033
X69215Y10033
X65278Y3810
X79756Y86360
X79756Y83820
X81026Y82550
X81026Y81280
X81026Y78740
X82296Y77470
X84836Y77470
X86106Y78740
X86106Y81280
X86106Y82550
X87376Y83820
X87376Y86360
X92456Y86360
X92456Y83820
X93726Y82550
X93726Y81280
X93726Y78740
X94996Y77470
X97536Y77470
X98806Y78740
X98806Y81280
X98806Y82550
X100076Y83820
X100076Y86360
X79756Y85090
X81026Y80010
X87376Y85090
X86106Y80010
X83566Y77470
X92456Y85090
X100076Y85090
X98806Y80010
X93726Y80010
X96266Y77470
X79312Y29210
X88138Y29210
X91313Y29210
X94551Y29210
X96901Y29210
X81344Y24130
X89344Y24130
X83693Y24130
X100901Y29210
X91694Y24130
X92519Y24130
X94932Y24130
X95694Y24130
X98107Y24130
X104521Y25400
X104521Y20955
X75311Y25400
X75311Y20955
X81026Y13970
X83566Y13970
X96266Y13970
X98806Y13970
X87376Y12700
X92456Y12700
X87376Y17145
X91186Y18161
X92456Y17145
X74676Y11430
X74041Y10160
X77216Y8255
X79756Y5080
X86614Y7366
X93218Y7366
X105791Y11430
X104521Y6350
X89916Y7493
X89916Y12700
X88646Y18161
X83566Y5080
X83566Y1270
X96266Y1270
X101346Y1270
X79756Y1270
X73406Y5080
X106426Y5080
X98806Y11430
X81026Y11430
X88138Y9398
X91694Y9398
X81026Y17780
X98806Y17780
X105791Y19685
X103251Y17780
X96266Y17780
X100076Y20320
X78486Y20320
X77216Y34290
X81026Y34290
X84836Y34290
X88646Y34290
X92456Y34290
X96266Y34290
X98806Y34290
X81026Y39370
X77216Y39370
X84836Y39370
X88646Y39370
X92456Y39370
X96266Y39370
X77216Y41910
X84836Y41910
X88646Y41910
X92456Y41910
X77216Y44450
X81026Y44450
X92456Y45720
X92456Y48260
X88646Y48260
X84836Y48260
X81026Y46990
X77216Y46990
X77216Y49530
X81026Y49530
X77216Y52070
X81026Y52070
X84836Y52070
X88646Y52070
X91186Y50800
X74041Y15875
X101981Y15748
X100711Y12065
X102616Y34290
X102616Y29210
X100711Y13970
X96266Y6350
X98806Y7620
X81026Y7620
X91186Y20828
X88646Y20828
X78486Y13970
X79756Y41910
X82296Y41910
X90656Y7471
X89408Y5207
X90170Y5207
X89916Y9779
X96266Y3810
X87732Y4089
X91948Y4572
X75184Y13208
X79756Y13208
X102489Y19685
X104521Y15367
X104013Y19685
X104775Y13970
X85090Y12065
X82106Y24130
X79756Y43180
X82931Y24130
X82296Y48260
X87376Y39370
X87376Y24130
X97790Y27940
X89916Y16764
X90424Y45720
X89154Y16764
X89916Y50800
X95631Y12065
X84201Y12065
X75946Y6350
X101981Y6350
X101219Y10033
X105283Y10033
X101346Y3810
X115824Y86360
X115824Y83820
X117094Y82550
X117094Y81280
X117094Y78740
X118364Y77470
X120904Y77470
X122174Y78740
X122174Y81280
X122174Y82550
X123444Y83820
X123444Y86360
X128524Y86360
X128524Y83820
X129794Y82550
X129794Y81280
X129794Y78740
X131064Y77470
X133604Y77470
X134874Y78740
X134874Y81280
X134874Y82550
X136144Y83820
X136144Y86360
X115824Y85090
X117094Y80010
X123444Y85090
X122174Y80010
X119634Y77470
X128524Y85090
X136144Y85090
X134874Y80010
X129794Y80010
X132334Y77470
X115379Y29210
X124206Y29210
X127381Y29210
X130619Y29210
X132969Y29210
X117411Y24130
X125412Y24130
X119761Y24130
X136970Y29210
X127762Y24130
X128587Y24130
X131000Y24130
X131763Y24130
X134176Y24130
X140589Y25400
X140589Y20955
X111379Y25400
X111379Y20955
X117094Y13970
X119634Y13970
X132334Y13970
X134874Y13970
X123444Y12700
X128524Y12700
X123444Y17145
X127254Y18161
X128524Y17145
X110744Y11430
X110109Y10160
X113284Y8255
X115824Y5080
X7620Y86360
X129286Y7366
X141859Y11430
X140589Y6350
X125984Y7493
X125984Y12700
X124714Y18161
X119634Y5080
X119634Y1270
X132334Y1270
X137414Y1270
X115824Y1270
X109474Y5080
X142494Y5080
X134874Y11430
X117094Y11430
X124206Y9398
X127762Y9398
X117094Y17780
X134874Y17780
X141859Y19685
X139319Y17780
X132334Y17780
X136144Y20320
X114554Y20320
X113284Y34290
X117094Y34290
X120904Y34290
X124714Y34290
X128524Y34290
X132334Y34290
X134874Y34290
X117094Y39370
X113284Y39370
X120904Y39370
X124714Y39370
X128524Y39370
X132334Y39370
X113284Y41910
X120904Y41910
X124714Y41910
X128524Y41910
X113284Y44450
X117094Y44450
X128524Y45720
X128524Y48260
X124714Y48260
X120904Y48260
X117094Y46990
X113284Y46990
X113284Y49530
X117094Y49530
X113284Y52070
X117094Y52070
X120904Y52070
X124714Y52070
X127254Y50800
X110109Y15875
X138049Y15748
X136779Y12065
X138684Y34290
X138684Y29210
X136779Y13970
X132334Y6350
X134874Y7620
X117094Y7620
X127254Y20828
X124714Y20828
X114554Y13970
X115824Y41910
X118364Y41910
X126724Y7471
X125476Y5207
X126238Y5207
X125984Y9779
X132334Y3810
X123800Y4089
X128016Y4572
X111252Y13208
X115824Y13208
X138557Y19685
X140589Y15367
X140081Y19685
X140843Y13970
X121158Y12065
X118173Y24130
X115824Y43180
X118999Y24130
X118364Y48260
X123444Y39370
X123444Y24130
X133858Y27940
X125984Y16764
X126492Y45720
X125222Y16764
X122682Y7366
X131699Y12065
X120269Y12065
X112014Y6350
X138049Y6350
X137287Y10033
X141351Y10033
X137414Y3810
X7620Y83820
X8890Y82550
X8890Y81280
X8890Y78740
X10160Y77470
X12700Y77470
X13970Y78740
X13970Y81280
X13970Y82550
X15240Y83820
X15240Y86360
X20320Y86360
X20320Y83820
X21590Y82550
X21590Y81280
X21590Y78740
X22860Y77470
X25400Y77470
X26670Y78740
X26670Y81280
X26670Y82550
X27940Y83820
X27940Y86360
X7620Y85090
X8890Y80010
X15240Y85090
X13970Y80010
X11430Y77470
X20320Y85090
X27940Y85090
X26670Y80010
X21590Y80010
X24130Y77470
X7175Y29210
X16002Y29210
X19177Y29210
X22415Y29210
X24765Y29210
X9208Y24130
X17209Y24130
X11557Y24130
X28765Y29210
X19558Y24130
X20384Y24130
X22796Y24130
X23558Y24130
X25971Y24130
X32385Y25400
X32385Y20955
X3175Y25400
X3175Y20955
X8890Y13970
X11430Y13970
X24130Y13970
X26670Y13970
X15240Y12700
X20320Y12700
X15240Y17145
X19050Y18161
X20320Y17145
X2540Y11430
X1905Y10160
X5080Y8255
X7620Y5080
X14478Y7366
X21082Y7366
X33655Y11430
X32385Y6350
X17780Y7493
X17780Y12700
X16510Y18161
X11430Y5080
X11430Y1270
X24130Y1270
X29210Y1270
X7620Y1270
X1270Y5080
X34290Y5080
X26670Y11430
X8890Y11430
X16002Y9398
X19558Y9398
X8890Y17780
X26670Y17780
X33655Y19685
X31115Y17780
X24130Y17780
X125984Y50800
M30