G04 EAGLE Gerber RS-274X export*
G75*
%MOMM*%
%FSLAX34Y34*%
%LPD*%
%INSoldermask Bottom*%
%IPPOS*%
%AMOC8*
5,1,8,0,0,1.08239X$1,22.5*%
G01*
%ADD10C,1.127000*%
%ADD11C,3.429000*%
%ADD12C,0.777000*%
%ADD13C,0.228600*%
%ADD14C,2.006600*%
%ADD15C,0.227778*%
%ADD16C,6.127000*%
%ADD17C,1.397000*%
%ADD18C,0.228344*%
%ADD19C,1.227000*%
%ADD20C,1.727000*%
%ADD21C,0.225938*%
%ADD22C,1.270000*%
%ADD23C,1.627000*%

G36*
X740729Y492772D02*
X740729Y492772D01*
X740795Y492774D01*
X740838Y492792D01*
X740885Y492800D01*
X740942Y492834D01*
X741002Y492859D01*
X741037Y492890D01*
X741078Y492915D01*
X741120Y492966D01*
X741168Y493010D01*
X741190Y493052D01*
X741219Y493089D01*
X741240Y493151D01*
X741271Y493210D01*
X741279Y493264D01*
X741291Y493301D01*
X741290Y493341D01*
X741298Y493395D01*
X741298Y497205D01*
X741287Y497270D01*
X741285Y497336D01*
X741267Y497379D01*
X741259Y497426D01*
X741225Y497483D01*
X741200Y497543D01*
X741169Y497578D01*
X741144Y497619D01*
X741093Y497661D01*
X741049Y497709D01*
X741007Y497731D01*
X740970Y497760D01*
X740908Y497781D01*
X740849Y497812D01*
X740795Y497820D01*
X740758Y497832D01*
X740718Y497831D01*
X740664Y497839D01*
X727456Y497839D01*
X727391Y497828D01*
X727325Y497826D01*
X727282Y497808D01*
X727235Y497800D01*
X727178Y497766D01*
X727118Y497741D01*
X727083Y497710D01*
X727042Y497685D01*
X727001Y497634D01*
X726952Y497590D01*
X726930Y497548D01*
X726901Y497511D01*
X726880Y497449D01*
X726849Y497390D01*
X726841Y497336D01*
X726829Y497299D01*
X726829Y497295D01*
X726829Y497294D01*
X726830Y497259D01*
X726822Y497205D01*
X726822Y493395D01*
X726833Y493330D01*
X726835Y493264D01*
X726853Y493221D01*
X726861Y493174D01*
X726895Y493117D01*
X726920Y493057D01*
X726951Y493022D01*
X726976Y492981D01*
X727027Y492940D01*
X727071Y492891D01*
X727113Y492869D01*
X727150Y492840D01*
X727212Y492819D01*
X727271Y492788D01*
X727325Y492780D01*
X727362Y492768D01*
X727402Y492769D01*
X727456Y492761D01*
X740664Y492761D01*
X740729Y492772D01*
G37*
G36*
X380049Y492772D02*
X380049Y492772D01*
X380115Y492774D01*
X380158Y492792D01*
X380205Y492800D01*
X380262Y492834D01*
X380322Y492859D01*
X380357Y492890D01*
X380398Y492915D01*
X380440Y492966D01*
X380488Y493010D01*
X380510Y493052D01*
X380539Y493089D01*
X380560Y493151D01*
X380591Y493210D01*
X380599Y493264D01*
X380611Y493301D01*
X380610Y493341D01*
X380618Y493395D01*
X380618Y497205D01*
X380607Y497270D01*
X380605Y497336D01*
X380587Y497379D01*
X380579Y497426D01*
X380545Y497483D01*
X380520Y497543D01*
X380489Y497578D01*
X380464Y497619D01*
X380413Y497661D01*
X380369Y497709D01*
X380327Y497731D01*
X380290Y497760D01*
X380228Y497781D01*
X380169Y497812D01*
X380115Y497820D01*
X380078Y497832D01*
X380038Y497831D01*
X379984Y497839D01*
X366776Y497839D01*
X366711Y497828D01*
X366645Y497826D01*
X366602Y497808D01*
X366555Y497800D01*
X366498Y497766D01*
X366438Y497741D01*
X366403Y497710D01*
X366362Y497685D01*
X366321Y497634D01*
X366272Y497590D01*
X366250Y497548D01*
X366221Y497511D01*
X366200Y497449D01*
X366169Y497390D01*
X366161Y497336D01*
X366149Y497299D01*
X366149Y497295D01*
X366149Y497294D01*
X366150Y497259D01*
X366142Y497205D01*
X366142Y493395D01*
X366153Y493330D01*
X366155Y493264D01*
X366173Y493221D01*
X366181Y493174D01*
X366215Y493117D01*
X366240Y493057D01*
X366271Y493022D01*
X366296Y492981D01*
X366347Y492940D01*
X366391Y492891D01*
X366433Y492869D01*
X366470Y492840D01*
X366532Y492819D01*
X366591Y492788D01*
X366645Y492780D01*
X366682Y492768D01*
X366722Y492769D01*
X366776Y492761D01*
X379984Y492761D01*
X380049Y492772D01*
G37*
G36*
X1101409Y492772D02*
X1101409Y492772D01*
X1101475Y492774D01*
X1101518Y492792D01*
X1101565Y492800D01*
X1101622Y492834D01*
X1101682Y492859D01*
X1101717Y492890D01*
X1101758Y492915D01*
X1101800Y492966D01*
X1101848Y493010D01*
X1101870Y493052D01*
X1101899Y493089D01*
X1101920Y493151D01*
X1101951Y493210D01*
X1101959Y493264D01*
X1101971Y493301D01*
X1101970Y493341D01*
X1101978Y493395D01*
X1101978Y497205D01*
X1101967Y497270D01*
X1101965Y497336D01*
X1101947Y497379D01*
X1101939Y497426D01*
X1101905Y497483D01*
X1101880Y497543D01*
X1101849Y497578D01*
X1101824Y497619D01*
X1101773Y497661D01*
X1101729Y497709D01*
X1101687Y497731D01*
X1101650Y497760D01*
X1101588Y497781D01*
X1101529Y497812D01*
X1101475Y497820D01*
X1101438Y497832D01*
X1101398Y497831D01*
X1101344Y497839D01*
X1088136Y497839D01*
X1088071Y497828D01*
X1088005Y497826D01*
X1087962Y497808D01*
X1087915Y497800D01*
X1087858Y497766D01*
X1087798Y497741D01*
X1087763Y497710D01*
X1087722Y497685D01*
X1087681Y497634D01*
X1087632Y497590D01*
X1087610Y497548D01*
X1087581Y497511D01*
X1087560Y497449D01*
X1087529Y497390D01*
X1087521Y497336D01*
X1087509Y497299D01*
X1087509Y497295D01*
X1087509Y497294D01*
X1087510Y497259D01*
X1087502Y497205D01*
X1087502Y493395D01*
X1087513Y493330D01*
X1087515Y493264D01*
X1087533Y493221D01*
X1087541Y493174D01*
X1087575Y493117D01*
X1087600Y493057D01*
X1087631Y493022D01*
X1087656Y492981D01*
X1087707Y492940D01*
X1087751Y492891D01*
X1087793Y492869D01*
X1087830Y492840D01*
X1087892Y492819D01*
X1087951Y492788D01*
X1088005Y492780D01*
X1088042Y492768D01*
X1088082Y492769D01*
X1088136Y492761D01*
X1101344Y492761D01*
X1101409Y492772D01*
G37*
G36*
X19369Y492772D02*
X19369Y492772D01*
X19435Y492774D01*
X19478Y492792D01*
X19525Y492800D01*
X19582Y492834D01*
X19642Y492859D01*
X19677Y492890D01*
X19718Y492915D01*
X19760Y492966D01*
X19808Y493010D01*
X19830Y493052D01*
X19859Y493089D01*
X19880Y493151D01*
X19911Y493210D01*
X19919Y493264D01*
X19931Y493301D01*
X19930Y493341D01*
X19938Y493395D01*
X19938Y497205D01*
X19927Y497270D01*
X19925Y497336D01*
X19907Y497379D01*
X19899Y497426D01*
X19865Y497483D01*
X19840Y497543D01*
X19809Y497578D01*
X19784Y497619D01*
X19733Y497661D01*
X19689Y497709D01*
X19647Y497731D01*
X19610Y497760D01*
X19548Y497781D01*
X19489Y497812D01*
X19435Y497820D01*
X19398Y497832D01*
X19358Y497831D01*
X19304Y497839D01*
X6096Y497839D01*
X6031Y497828D01*
X5965Y497826D01*
X5922Y497808D01*
X5875Y497800D01*
X5818Y497766D01*
X5758Y497741D01*
X5723Y497710D01*
X5682Y497685D01*
X5641Y497634D01*
X5592Y497590D01*
X5570Y497548D01*
X5541Y497511D01*
X5520Y497449D01*
X5489Y497390D01*
X5481Y497336D01*
X5469Y497299D01*
X5469Y497295D01*
X5469Y497294D01*
X5470Y497259D01*
X5462Y497205D01*
X5462Y493395D01*
X5473Y493330D01*
X5475Y493264D01*
X5493Y493221D01*
X5501Y493174D01*
X5535Y493117D01*
X5560Y493057D01*
X5591Y493022D01*
X5616Y492981D01*
X5667Y492940D01*
X5711Y492891D01*
X5753Y492869D01*
X5790Y492840D01*
X5852Y492819D01*
X5911Y492788D01*
X5965Y492780D01*
X6002Y492768D01*
X6042Y492769D01*
X6096Y492761D01*
X19304Y492761D01*
X19369Y492772D01*
G37*
G36*
X1101409Y441972D02*
X1101409Y441972D01*
X1101475Y441974D01*
X1101518Y441992D01*
X1101565Y442000D01*
X1101622Y442034D01*
X1101682Y442059D01*
X1101717Y442090D01*
X1101758Y442115D01*
X1101800Y442166D01*
X1101848Y442210D01*
X1101870Y442252D01*
X1101899Y442289D01*
X1101920Y442351D01*
X1101951Y442410D01*
X1101959Y442464D01*
X1101971Y442501D01*
X1101970Y442541D01*
X1101978Y442595D01*
X1101978Y446405D01*
X1101967Y446470D01*
X1101965Y446536D01*
X1101947Y446579D01*
X1101939Y446626D01*
X1101905Y446683D01*
X1101880Y446743D01*
X1101849Y446778D01*
X1101824Y446819D01*
X1101773Y446861D01*
X1101729Y446909D01*
X1101687Y446931D01*
X1101650Y446960D01*
X1101588Y446981D01*
X1101529Y447012D01*
X1101475Y447020D01*
X1101438Y447032D01*
X1101398Y447031D01*
X1101344Y447039D01*
X1088136Y447039D01*
X1088071Y447028D01*
X1088005Y447026D01*
X1087962Y447008D01*
X1087915Y447000D01*
X1087858Y446966D01*
X1087798Y446941D01*
X1087763Y446910D01*
X1087722Y446885D01*
X1087681Y446834D01*
X1087632Y446790D01*
X1087610Y446748D01*
X1087581Y446711D01*
X1087560Y446649D01*
X1087529Y446590D01*
X1087521Y446536D01*
X1087509Y446499D01*
X1087509Y446495D01*
X1087509Y446494D01*
X1087510Y446459D01*
X1087502Y446405D01*
X1087502Y442595D01*
X1087513Y442530D01*
X1087515Y442464D01*
X1087533Y442421D01*
X1087541Y442374D01*
X1087575Y442317D01*
X1087600Y442257D01*
X1087631Y442222D01*
X1087656Y442181D01*
X1087707Y442140D01*
X1087751Y442091D01*
X1087793Y442069D01*
X1087830Y442040D01*
X1087892Y442019D01*
X1087951Y441988D01*
X1088005Y441980D01*
X1088042Y441968D01*
X1088082Y441969D01*
X1088136Y441961D01*
X1101344Y441961D01*
X1101409Y441972D01*
G37*
G36*
X740729Y441972D02*
X740729Y441972D01*
X740795Y441974D01*
X740838Y441992D01*
X740885Y442000D01*
X740942Y442034D01*
X741002Y442059D01*
X741037Y442090D01*
X741078Y442115D01*
X741120Y442166D01*
X741168Y442210D01*
X741190Y442252D01*
X741219Y442289D01*
X741240Y442351D01*
X741271Y442410D01*
X741279Y442464D01*
X741291Y442501D01*
X741290Y442541D01*
X741298Y442595D01*
X741298Y446405D01*
X741287Y446470D01*
X741285Y446536D01*
X741267Y446579D01*
X741259Y446626D01*
X741225Y446683D01*
X741200Y446743D01*
X741169Y446778D01*
X741144Y446819D01*
X741093Y446861D01*
X741049Y446909D01*
X741007Y446931D01*
X740970Y446960D01*
X740908Y446981D01*
X740849Y447012D01*
X740795Y447020D01*
X740758Y447032D01*
X740718Y447031D01*
X740664Y447039D01*
X727456Y447039D01*
X727391Y447028D01*
X727325Y447026D01*
X727282Y447008D01*
X727235Y447000D01*
X727178Y446966D01*
X727118Y446941D01*
X727083Y446910D01*
X727042Y446885D01*
X727001Y446834D01*
X726952Y446790D01*
X726930Y446748D01*
X726901Y446711D01*
X726880Y446649D01*
X726849Y446590D01*
X726841Y446536D01*
X726829Y446499D01*
X726829Y446495D01*
X726829Y446494D01*
X726830Y446459D01*
X726822Y446405D01*
X726822Y442595D01*
X726833Y442530D01*
X726835Y442464D01*
X726853Y442421D01*
X726861Y442374D01*
X726895Y442317D01*
X726920Y442257D01*
X726951Y442222D01*
X726976Y442181D01*
X727027Y442140D01*
X727071Y442091D01*
X727113Y442069D01*
X727150Y442040D01*
X727212Y442019D01*
X727271Y441988D01*
X727325Y441980D01*
X727362Y441968D01*
X727402Y441969D01*
X727456Y441961D01*
X740664Y441961D01*
X740729Y441972D01*
G37*
G36*
X380049Y441972D02*
X380049Y441972D01*
X380115Y441974D01*
X380158Y441992D01*
X380205Y442000D01*
X380262Y442034D01*
X380322Y442059D01*
X380357Y442090D01*
X380398Y442115D01*
X380440Y442166D01*
X380488Y442210D01*
X380510Y442252D01*
X380539Y442289D01*
X380560Y442351D01*
X380591Y442410D01*
X380599Y442464D01*
X380611Y442501D01*
X380610Y442541D01*
X380618Y442595D01*
X380618Y446405D01*
X380607Y446470D01*
X380605Y446536D01*
X380587Y446579D01*
X380579Y446626D01*
X380545Y446683D01*
X380520Y446743D01*
X380489Y446778D01*
X380464Y446819D01*
X380413Y446861D01*
X380369Y446909D01*
X380327Y446931D01*
X380290Y446960D01*
X380228Y446981D01*
X380169Y447012D01*
X380115Y447020D01*
X380078Y447032D01*
X380038Y447031D01*
X379984Y447039D01*
X366776Y447039D01*
X366711Y447028D01*
X366645Y447026D01*
X366602Y447008D01*
X366555Y447000D01*
X366498Y446966D01*
X366438Y446941D01*
X366403Y446910D01*
X366362Y446885D01*
X366321Y446834D01*
X366272Y446790D01*
X366250Y446748D01*
X366221Y446711D01*
X366200Y446649D01*
X366169Y446590D01*
X366161Y446536D01*
X366149Y446499D01*
X366149Y446495D01*
X366149Y446494D01*
X366150Y446459D01*
X366142Y446405D01*
X366142Y442595D01*
X366153Y442530D01*
X366155Y442464D01*
X366173Y442421D01*
X366181Y442374D01*
X366215Y442317D01*
X366240Y442257D01*
X366271Y442222D01*
X366296Y442181D01*
X366347Y442140D01*
X366391Y442091D01*
X366433Y442069D01*
X366470Y442040D01*
X366532Y442019D01*
X366591Y441988D01*
X366645Y441980D01*
X366682Y441968D01*
X366722Y441969D01*
X366776Y441961D01*
X379984Y441961D01*
X380049Y441972D01*
G37*
G36*
X19369Y441972D02*
X19369Y441972D01*
X19435Y441974D01*
X19478Y441992D01*
X19525Y442000D01*
X19582Y442034D01*
X19642Y442059D01*
X19677Y442090D01*
X19718Y442115D01*
X19760Y442166D01*
X19808Y442210D01*
X19830Y442252D01*
X19859Y442289D01*
X19880Y442351D01*
X19911Y442410D01*
X19919Y442464D01*
X19931Y442501D01*
X19930Y442541D01*
X19938Y442595D01*
X19938Y446405D01*
X19927Y446470D01*
X19925Y446536D01*
X19907Y446579D01*
X19899Y446626D01*
X19865Y446683D01*
X19840Y446743D01*
X19809Y446778D01*
X19784Y446819D01*
X19733Y446861D01*
X19689Y446909D01*
X19647Y446931D01*
X19610Y446960D01*
X19548Y446981D01*
X19489Y447012D01*
X19435Y447020D01*
X19398Y447032D01*
X19358Y447031D01*
X19304Y447039D01*
X6096Y447039D01*
X6031Y447028D01*
X5965Y447026D01*
X5922Y447008D01*
X5875Y447000D01*
X5818Y446966D01*
X5758Y446941D01*
X5723Y446910D01*
X5682Y446885D01*
X5641Y446834D01*
X5592Y446790D01*
X5570Y446748D01*
X5541Y446711D01*
X5520Y446649D01*
X5489Y446590D01*
X5481Y446536D01*
X5469Y446499D01*
X5469Y446495D01*
X5469Y446494D01*
X5470Y446459D01*
X5462Y446405D01*
X5462Y442595D01*
X5473Y442530D01*
X5475Y442464D01*
X5493Y442421D01*
X5501Y442374D01*
X5535Y442317D01*
X5560Y442257D01*
X5591Y442222D01*
X5616Y442181D01*
X5667Y442140D01*
X5711Y442091D01*
X5753Y442069D01*
X5790Y442040D01*
X5852Y442019D01*
X5911Y441988D01*
X5965Y441980D01*
X6002Y441968D01*
X6042Y441969D01*
X6096Y441961D01*
X19304Y441961D01*
X19369Y441972D01*
G37*
G36*
X483300Y99707D02*
X483300Y99707D01*
X483366Y99709D01*
X483409Y99727D01*
X483456Y99735D01*
X483513Y99769D01*
X483573Y99794D01*
X483608Y99825D01*
X483649Y99850D01*
X483691Y99901D01*
X483739Y99945D01*
X483761Y99987D01*
X483790Y100024D01*
X483811Y100086D01*
X483842Y100145D01*
X483850Y100199D01*
X483862Y100236D01*
X483861Y100276D01*
X483869Y100330D01*
X483869Y102870D01*
X483858Y102935D01*
X483856Y103001D01*
X483838Y103044D01*
X483830Y103091D01*
X483796Y103148D01*
X483771Y103208D01*
X483740Y103243D01*
X483715Y103284D01*
X483664Y103326D01*
X483620Y103374D01*
X483578Y103396D01*
X483541Y103425D01*
X483479Y103446D01*
X483420Y103477D01*
X483366Y103485D01*
X483329Y103497D01*
X483289Y103496D01*
X483235Y103504D01*
X479425Y103504D01*
X479360Y103493D01*
X479294Y103491D01*
X479251Y103473D01*
X479204Y103465D01*
X479147Y103431D01*
X479087Y103406D01*
X479052Y103375D01*
X479011Y103350D01*
X478970Y103299D01*
X478921Y103255D01*
X478899Y103213D01*
X478870Y103176D01*
X478849Y103114D01*
X478818Y103055D01*
X478810Y103001D01*
X478798Y102964D01*
X478798Y102961D01*
X478799Y102924D01*
X478791Y102870D01*
X478791Y100330D01*
X478802Y100265D01*
X478804Y100199D01*
X478822Y100156D01*
X478830Y100109D01*
X478864Y100052D01*
X478889Y99992D01*
X478920Y99957D01*
X478945Y99916D01*
X478996Y99875D01*
X479040Y99826D01*
X479082Y99804D01*
X479119Y99775D01*
X479181Y99754D01*
X479240Y99723D01*
X479294Y99715D01*
X479331Y99703D01*
X479371Y99704D01*
X479425Y99696D01*
X483235Y99696D01*
X483300Y99707D01*
G37*
G36*
X1029400Y99707D02*
X1029400Y99707D01*
X1029466Y99709D01*
X1029509Y99727D01*
X1029556Y99735D01*
X1029613Y99769D01*
X1029673Y99794D01*
X1029708Y99825D01*
X1029749Y99850D01*
X1029791Y99901D01*
X1029839Y99945D01*
X1029861Y99987D01*
X1029890Y100024D01*
X1029911Y100086D01*
X1029942Y100145D01*
X1029950Y100199D01*
X1029962Y100236D01*
X1029961Y100276D01*
X1029969Y100330D01*
X1029969Y102870D01*
X1029958Y102935D01*
X1029956Y103001D01*
X1029938Y103044D01*
X1029930Y103091D01*
X1029896Y103148D01*
X1029871Y103208D01*
X1029840Y103243D01*
X1029815Y103284D01*
X1029764Y103326D01*
X1029720Y103374D01*
X1029678Y103396D01*
X1029641Y103425D01*
X1029579Y103446D01*
X1029520Y103477D01*
X1029466Y103485D01*
X1029429Y103497D01*
X1029389Y103496D01*
X1029335Y103504D01*
X1025525Y103504D01*
X1025460Y103493D01*
X1025394Y103491D01*
X1025351Y103473D01*
X1025304Y103465D01*
X1025247Y103431D01*
X1025187Y103406D01*
X1025152Y103375D01*
X1025111Y103350D01*
X1025070Y103299D01*
X1025021Y103255D01*
X1024999Y103213D01*
X1024970Y103176D01*
X1024949Y103114D01*
X1024918Y103055D01*
X1024910Y103001D01*
X1024898Y102964D01*
X1024898Y102961D01*
X1024899Y102924D01*
X1024891Y102870D01*
X1024891Y100330D01*
X1024902Y100265D01*
X1024904Y100199D01*
X1024922Y100156D01*
X1024930Y100109D01*
X1024964Y100052D01*
X1024989Y99992D01*
X1025020Y99957D01*
X1025045Y99916D01*
X1025096Y99875D01*
X1025140Y99826D01*
X1025182Y99804D01*
X1025219Y99775D01*
X1025281Y99754D01*
X1025340Y99723D01*
X1025394Y99715D01*
X1025431Y99703D01*
X1025471Y99704D01*
X1025525Y99696D01*
X1029335Y99696D01*
X1029400Y99707D01*
G37*
G36*
X122620Y99707D02*
X122620Y99707D01*
X122686Y99709D01*
X122729Y99727D01*
X122776Y99735D01*
X122833Y99769D01*
X122893Y99794D01*
X122928Y99825D01*
X122969Y99850D01*
X123011Y99901D01*
X123059Y99945D01*
X123081Y99987D01*
X123110Y100024D01*
X123131Y100086D01*
X123162Y100145D01*
X123170Y100199D01*
X123182Y100236D01*
X123181Y100276D01*
X123189Y100330D01*
X123189Y102870D01*
X123178Y102935D01*
X123176Y103001D01*
X123158Y103044D01*
X123150Y103091D01*
X123116Y103148D01*
X123091Y103208D01*
X123060Y103243D01*
X123035Y103284D01*
X122984Y103326D01*
X122940Y103374D01*
X122898Y103396D01*
X122861Y103425D01*
X122799Y103446D01*
X122740Y103477D01*
X122686Y103485D01*
X122649Y103497D01*
X122609Y103496D01*
X122555Y103504D01*
X118745Y103504D01*
X118680Y103493D01*
X118614Y103491D01*
X118571Y103473D01*
X118524Y103465D01*
X118467Y103431D01*
X118407Y103406D01*
X118372Y103375D01*
X118331Y103350D01*
X118290Y103299D01*
X118241Y103255D01*
X118219Y103213D01*
X118190Y103176D01*
X118169Y103114D01*
X118138Y103055D01*
X118130Y103001D01*
X118118Y102964D01*
X118118Y102961D01*
X118119Y102924D01*
X118111Y102870D01*
X118111Y100330D01*
X118122Y100265D01*
X118124Y100199D01*
X118142Y100156D01*
X118150Y100109D01*
X118184Y100052D01*
X118209Y99992D01*
X118240Y99957D01*
X118265Y99916D01*
X118316Y99875D01*
X118360Y99826D01*
X118402Y99804D01*
X118439Y99775D01*
X118501Y99754D01*
X118560Y99723D01*
X118614Y99715D01*
X118651Y99703D01*
X118691Y99704D01*
X118745Y99696D01*
X122555Y99696D01*
X122620Y99707D01*
G37*
G36*
X597600Y99707D02*
X597600Y99707D01*
X597666Y99709D01*
X597709Y99727D01*
X597756Y99735D01*
X597813Y99769D01*
X597873Y99794D01*
X597908Y99825D01*
X597949Y99850D01*
X597991Y99901D01*
X598039Y99945D01*
X598061Y99987D01*
X598090Y100024D01*
X598111Y100086D01*
X598142Y100145D01*
X598150Y100199D01*
X598162Y100236D01*
X598161Y100276D01*
X598169Y100330D01*
X598169Y102870D01*
X598158Y102935D01*
X598156Y103001D01*
X598138Y103044D01*
X598130Y103091D01*
X598096Y103148D01*
X598071Y103208D01*
X598040Y103243D01*
X598015Y103284D01*
X597964Y103326D01*
X597920Y103374D01*
X597878Y103396D01*
X597841Y103425D01*
X597779Y103446D01*
X597720Y103477D01*
X597666Y103485D01*
X597629Y103497D01*
X597589Y103496D01*
X597535Y103504D01*
X593725Y103504D01*
X593660Y103493D01*
X593594Y103491D01*
X593551Y103473D01*
X593504Y103465D01*
X593447Y103431D01*
X593387Y103406D01*
X593352Y103375D01*
X593311Y103350D01*
X593270Y103299D01*
X593221Y103255D01*
X593199Y103213D01*
X593170Y103176D01*
X593149Y103114D01*
X593118Y103055D01*
X593110Y103001D01*
X593098Y102964D01*
X593098Y102961D01*
X593099Y102924D01*
X593091Y102870D01*
X593091Y100330D01*
X593102Y100265D01*
X593104Y100199D01*
X593122Y100156D01*
X593130Y100109D01*
X593164Y100052D01*
X593189Y99992D01*
X593220Y99957D01*
X593245Y99916D01*
X593296Y99875D01*
X593340Y99826D01*
X593382Y99804D01*
X593419Y99775D01*
X593481Y99754D01*
X593540Y99723D01*
X593594Y99715D01*
X593631Y99703D01*
X593671Y99704D01*
X593725Y99696D01*
X597535Y99696D01*
X597600Y99707D01*
G37*
G36*
X958280Y99707D02*
X958280Y99707D01*
X958346Y99709D01*
X958389Y99727D01*
X958436Y99735D01*
X958493Y99769D01*
X958553Y99794D01*
X958588Y99825D01*
X958629Y99850D01*
X958671Y99901D01*
X958719Y99945D01*
X958741Y99987D01*
X958770Y100024D01*
X958791Y100086D01*
X958822Y100145D01*
X958830Y100199D01*
X958842Y100236D01*
X958841Y100276D01*
X958849Y100330D01*
X958849Y102870D01*
X958838Y102935D01*
X958836Y103001D01*
X958818Y103044D01*
X958810Y103091D01*
X958776Y103148D01*
X958751Y103208D01*
X958720Y103243D01*
X958695Y103284D01*
X958644Y103326D01*
X958600Y103374D01*
X958558Y103396D01*
X958521Y103425D01*
X958459Y103446D01*
X958400Y103477D01*
X958346Y103485D01*
X958309Y103497D01*
X958269Y103496D01*
X958215Y103504D01*
X954405Y103504D01*
X954340Y103493D01*
X954274Y103491D01*
X954231Y103473D01*
X954184Y103465D01*
X954127Y103431D01*
X954067Y103406D01*
X954032Y103375D01*
X953991Y103350D01*
X953950Y103299D01*
X953901Y103255D01*
X953879Y103213D01*
X953850Y103176D01*
X953829Y103114D01*
X953798Y103055D01*
X953790Y103001D01*
X953778Y102964D01*
X953778Y102961D01*
X953779Y102924D01*
X953771Y102870D01*
X953771Y100330D01*
X953782Y100265D01*
X953784Y100199D01*
X953802Y100156D01*
X953810Y100109D01*
X953844Y100052D01*
X953869Y99992D01*
X953900Y99957D01*
X953925Y99916D01*
X953976Y99875D01*
X954020Y99826D01*
X954062Y99804D01*
X954099Y99775D01*
X954161Y99754D01*
X954220Y99723D01*
X954274Y99715D01*
X954311Y99703D01*
X954351Y99704D01*
X954405Y99696D01*
X958215Y99696D01*
X958280Y99707D01*
G37*
G36*
X668720Y99707D02*
X668720Y99707D01*
X668786Y99709D01*
X668829Y99727D01*
X668876Y99735D01*
X668933Y99769D01*
X668993Y99794D01*
X669028Y99825D01*
X669069Y99850D01*
X669111Y99901D01*
X669159Y99945D01*
X669181Y99987D01*
X669210Y100024D01*
X669231Y100086D01*
X669262Y100145D01*
X669270Y100199D01*
X669282Y100236D01*
X669281Y100276D01*
X669289Y100330D01*
X669289Y102870D01*
X669278Y102935D01*
X669276Y103001D01*
X669258Y103044D01*
X669250Y103091D01*
X669216Y103148D01*
X669191Y103208D01*
X669160Y103243D01*
X669135Y103284D01*
X669084Y103326D01*
X669040Y103374D01*
X668998Y103396D01*
X668961Y103425D01*
X668899Y103446D01*
X668840Y103477D01*
X668786Y103485D01*
X668749Y103497D01*
X668709Y103496D01*
X668655Y103504D01*
X664845Y103504D01*
X664780Y103493D01*
X664714Y103491D01*
X664671Y103473D01*
X664624Y103465D01*
X664567Y103431D01*
X664507Y103406D01*
X664472Y103375D01*
X664431Y103350D01*
X664390Y103299D01*
X664341Y103255D01*
X664319Y103213D01*
X664290Y103176D01*
X664269Y103114D01*
X664238Y103055D01*
X664230Y103001D01*
X664218Y102964D01*
X664218Y102961D01*
X664219Y102924D01*
X664211Y102870D01*
X664211Y100330D01*
X664222Y100265D01*
X664224Y100199D01*
X664242Y100156D01*
X664250Y100109D01*
X664284Y100052D01*
X664309Y99992D01*
X664340Y99957D01*
X664365Y99916D01*
X664416Y99875D01*
X664460Y99826D01*
X664502Y99804D01*
X664539Y99775D01*
X664601Y99754D01*
X664660Y99723D01*
X664714Y99715D01*
X664751Y99703D01*
X664791Y99704D01*
X664845Y99696D01*
X668655Y99696D01*
X668720Y99707D01*
G37*
G36*
X308040Y99707D02*
X308040Y99707D01*
X308106Y99709D01*
X308149Y99727D01*
X308196Y99735D01*
X308253Y99769D01*
X308313Y99794D01*
X308348Y99825D01*
X308389Y99850D01*
X308431Y99901D01*
X308479Y99945D01*
X308501Y99987D01*
X308530Y100024D01*
X308551Y100086D01*
X308582Y100145D01*
X308590Y100199D01*
X308602Y100236D01*
X308601Y100276D01*
X308609Y100330D01*
X308609Y102870D01*
X308598Y102935D01*
X308596Y103001D01*
X308578Y103044D01*
X308570Y103091D01*
X308536Y103148D01*
X308511Y103208D01*
X308480Y103243D01*
X308455Y103284D01*
X308404Y103326D01*
X308360Y103374D01*
X308318Y103396D01*
X308281Y103425D01*
X308219Y103446D01*
X308160Y103477D01*
X308106Y103485D01*
X308069Y103497D01*
X308029Y103496D01*
X307975Y103504D01*
X304165Y103504D01*
X304100Y103493D01*
X304034Y103491D01*
X303991Y103473D01*
X303944Y103465D01*
X303887Y103431D01*
X303827Y103406D01*
X303792Y103375D01*
X303751Y103350D01*
X303710Y103299D01*
X303661Y103255D01*
X303639Y103213D01*
X303610Y103176D01*
X303589Y103114D01*
X303558Y103055D01*
X303550Y103001D01*
X303538Y102964D01*
X303538Y102961D01*
X303539Y102924D01*
X303531Y102870D01*
X303531Y100330D01*
X303542Y100265D01*
X303544Y100199D01*
X303562Y100156D01*
X303570Y100109D01*
X303604Y100052D01*
X303629Y99992D01*
X303660Y99957D01*
X303685Y99916D01*
X303736Y99875D01*
X303780Y99826D01*
X303822Y99804D01*
X303859Y99775D01*
X303921Y99754D01*
X303980Y99723D01*
X304034Y99715D01*
X304071Y99703D01*
X304111Y99704D01*
X304165Y99696D01*
X307975Y99696D01*
X308040Y99707D01*
G37*
G36*
X1390080Y99707D02*
X1390080Y99707D01*
X1390146Y99709D01*
X1390189Y99727D01*
X1390236Y99735D01*
X1390293Y99769D01*
X1390353Y99794D01*
X1390388Y99825D01*
X1390429Y99850D01*
X1390471Y99901D01*
X1390519Y99945D01*
X1390541Y99987D01*
X1390570Y100024D01*
X1390591Y100086D01*
X1390622Y100145D01*
X1390630Y100199D01*
X1390642Y100236D01*
X1390641Y100276D01*
X1390649Y100330D01*
X1390649Y102870D01*
X1390638Y102935D01*
X1390636Y103001D01*
X1390618Y103044D01*
X1390610Y103091D01*
X1390576Y103148D01*
X1390551Y103208D01*
X1390520Y103243D01*
X1390495Y103284D01*
X1390444Y103326D01*
X1390400Y103374D01*
X1390358Y103396D01*
X1390321Y103425D01*
X1390259Y103446D01*
X1390200Y103477D01*
X1390146Y103485D01*
X1390109Y103497D01*
X1390069Y103496D01*
X1390015Y103504D01*
X1386205Y103504D01*
X1386140Y103493D01*
X1386074Y103491D01*
X1386031Y103473D01*
X1385984Y103465D01*
X1385927Y103431D01*
X1385867Y103406D01*
X1385832Y103375D01*
X1385791Y103350D01*
X1385750Y103299D01*
X1385701Y103255D01*
X1385679Y103213D01*
X1385650Y103176D01*
X1385629Y103114D01*
X1385598Y103055D01*
X1385590Y103001D01*
X1385578Y102964D01*
X1385578Y102961D01*
X1385579Y102924D01*
X1385571Y102870D01*
X1385571Y100330D01*
X1385582Y100265D01*
X1385584Y100199D01*
X1385602Y100156D01*
X1385610Y100109D01*
X1385644Y100052D01*
X1385669Y99992D01*
X1385700Y99957D01*
X1385725Y99916D01*
X1385776Y99875D01*
X1385820Y99826D01*
X1385862Y99804D01*
X1385899Y99775D01*
X1385961Y99754D01*
X1386020Y99723D01*
X1386074Y99715D01*
X1386111Y99703D01*
X1386151Y99704D01*
X1386205Y99696D01*
X1390015Y99696D01*
X1390080Y99707D01*
G37*
G36*
X236920Y99707D02*
X236920Y99707D01*
X236986Y99709D01*
X237029Y99727D01*
X237076Y99735D01*
X237133Y99769D01*
X237193Y99794D01*
X237228Y99825D01*
X237269Y99850D01*
X237311Y99901D01*
X237359Y99945D01*
X237381Y99987D01*
X237410Y100024D01*
X237431Y100086D01*
X237462Y100145D01*
X237470Y100199D01*
X237482Y100236D01*
X237481Y100276D01*
X237489Y100330D01*
X237489Y102870D01*
X237478Y102935D01*
X237476Y103001D01*
X237458Y103044D01*
X237450Y103091D01*
X237416Y103148D01*
X237391Y103208D01*
X237360Y103243D01*
X237335Y103284D01*
X237284Y103326D01*
X237240Y103374D01*
X237198Y103396D01*
X237161Y103425D01*
X237099Y103446D01*
X237040Y103477D01*
X236986Y103485D01*
X236949Y103497D01*
X236909Y103496D01*
X236855Y103504D01*
X233045Y103504D01*
X232980Y103493D01*
X232914Y103491D01*
X232871Y103473D01*
X232824Y103465D01*
X232767Y103431D01*
X232707Y103406D01*
X232672Y103375D01*
X232631Y103350D01*
X232590Y103299D01*
X232541Y103255D01*
X232519Y103213D01*
X232490Y103176D01*
X232469Y103114D01*
X232438Y103055D01*
X232430Y103001D01*
X232418Y102964D01*
X232418Y102961D01*
X232419Y102924D01*
X232411Y102870D01*
X232411Y100330D01*
X232422Y100265D01*
X232424Y100199D01*
X232442Y100156D01*
X232450Y100109D01*
X232484Y100052D01*
X232509Y99992D01*
X232540Y99957D01*
X232565Y99916D01*
X232616Y99875D01*
X232660Y99826D01*
X232702Y99804D01*
X232739Y99775D01*
X232801Y99754D01*
X232860Y99723D01*
X232914Y99715D01*
X232951Y99703D01*
X232991Y99704D01*
X233045Y99696D01*
X236855Y99696D01*
X236920Y99707D01*
G37*
G36*
X1204660Y99707D02*
X1204660Y99707D01*
X1204726Y99709D01*
X1204769Y99727D01*
X1204816Y99735D01*
X1204873Y99769D01*
X1204933Y99794D01*
X1204968Y99825D01*
X1205009Y99850D01*
X1205051Y99901D01*
X1205099Y99945D01*
X1205121Y99987D01*
X1205150Y100024D01*
X1205171Y100086D01*
X1205202Y100145D01*
X1205210Y100199D01*
X1205222Y100236D01*
X1205221Y100276D01*
X1205229Y100330D01*
X1205229Y102870D01*
X1205218Y102935D01*
X1205216Y103001D01*
X1205198Y103044D01*
X1205190Y103091D01*
X1205156Y103148D01*
X1205131Y103208D01*
X1205100Y103243D01*
X1205075Y103284D01*
X1205024Y103326D01*
X1204980Y103374D01*
X1204938Y103396D01*
X1204901Y103425D01*
X1204839Y103446D01*
X1204780Y103477D01*
X1204726Y103485D01*
X1204689Y103497D01*
X1204649Y103496D01*
X1204595Y103504D01*
X1200785Y103504D01*
X1200720Y103493D01*
X1200654Y103491D01*
X1200611Y103473D01*
X1200564Y103465D01*
X1200507Y103431D01*
X1200447Y103406D01*
X1200412Y103375D01*
X1200371Y103350D01*
X1200330Y103299D01*
X1200281Y103255D01*
X1200259Y103213D01*
X1200230Y103176D01*
X1200209Y103114D01*
X1200178Y103055D01*
X1200170Y103001D01*
X1200158Y102964D01*
X1200158Y102961D01*
X1200159Y102924D01*
X1200151Y102870D01*
X1200151Y100330D01*
X1200162Y100265D01*
X1200164Y100199D01*
X1200182Y100156D01*
X1200190Y100109D01*
X1200224Y100052D01*
X1200249Y99992D01*
X1200280Y99957D01*
X1200305Y99916D01*
X1200356Y99875D01*
X1200400Y99826D01*
X1200442Y99804D01*
X1200479Y99775D01*
X1200541Y99754D01*
X1200600Y99723D01*
X1200654Y99715D01*
X1200691Y99703D01*
X1200731Y99704D01*
X1200785Y99696D01*
X1204595Y99696D01*
X1204660Y99707D01*
G37*
G36*
X843980Y99707D02*
X843980Y99707D01*
X844046Y99709D01*
X844089Y99727D01*
X844136Y99735D01*
X844193Y99769D01*
X844253Y99794D01*
X844288Y99825D01*
X844329Y99850D01*
X844371Y99901D01*
X844419Y99945D01*
X844441Y99987D01*
X844470Y100024D01*
X844491Y100086D01*
X844522Y100145D01*
X844530Y100199D01*
X844542Y100236D01*
X844541Y100276D01*
X844549Y100330D01*
X844549Y102870D01*
X844538Y102935D01*
X844536Y103001D01*
X844518Y103044D01*
X844510Y103091D01*
X844476Y103148D01*
X844451Y103208D01*
X844420Y103243D01*
X844395Y103284D01*
X844344Y103326D01*
X844300Y103374D01*
X844258Y103396D01*
X844221Y103425D01*
X844159Y103446D01*
X844100Y103477D01*
X844046Y103485D01*
X844009Y103497D01*
X843969Y103496D01*
X843915Y103504D01*
X840105Y103504D01*
X840040Y103493D01*
X839974Y103491D01*
X839931Y103473D01*
X839884Y103465D01*
X839827Y103431D01*
X839767Y103406D01*
X839732Y103375D01*
X839691Y103350D01*
X839650Y103299D01*
X839601Y103255D01*
X839579Y103213D01*
X839550Y103176D01*
X839529Y103114D01*
X839498Y103055D01*
X839490Y103001D01*
X839478Y102964D01*
X839478Y102961D01*
X839479Y102924D01*
X839471Y102870D01*
X839471Y100330D01*
X839482Y100265D01*
X839484Y100199D01*
X839502Y100156D01*
X839510Y100109D01*
X839544Y100052D01*
X839569Y99992D01*
X839600Y99957D01*
X839625Y99916D01*
X839676Y99875D01*
X839720Y99826D01*
X839762Y99804D01*
X839799Y99775D01*
X839861Y99754D01*
X839920Y99723D01*
X839974Y99715D01*
X840011Y99703D01*
X840051Y99704D01*
X840105Y99696D01*
X843915Y99696D01*
X843980Y99707D01*
G37*
G36*
X1318960Y99707D02*
X1318960Y99707D01*
X1319026Y99709D01*
X1319069Y99727D01*
X1319116Y99735D01*
X1319173Y99769D01*
X1319233Y99794D01*
X1319268Y99825D01*
X1319309Y99850D01*
X1319351Y99901D01*
X1319399Y99945D01*
X1319421Y99987D01*
X1319450Y100024D01*
X1319471Y100086D01*
X1319502Y100145D01*
X1319510Y100199D01*
X1319522Y100236D01*
X1319521Y100276D01*
X1319529Y100330D01*
X1319529Y102870D01*
X1319518Y102935D01*
X1319516Y103001D01*
X1319498Y103044D01*
X1319490Y103091D01*
X1319456Y103148D01*
X1319431Y103208D01*
X1319400Y103243D01*
X1319375Y103284D01*
X1319324Y103326D01*
X1319280Y103374D01*
X1319238Y103396D01*
X1319201Y103425D01*
X1319139Y103446D01*
X1319080Y103477D01*
X1319026Y103485D01*
X1318989Y103497D01*
X1318949Y103496D01*
X1318895Y103504D01*
X1315085Y103504D01*
X1315020Y103493D01*
X1314954Y103491D01*
X1314911Y103473D01*
X1314864Y103465D01*
X1314807Y103431D01*
X1314747Y103406D01*
X1314712Y103375D01*
X1314671Y103350D01*
X1314630Y103299D01*
X1314581Y103255D01*
X1314559Y103213D01*
X1314530Y103176D01*
X1314509Y103114D01*
X1314478Y103055D01*
X1314470Y103001D01*
X1314458Y102964D01*
X1314458Y102961D01*
X1314459Y102924D01*
X1314451Y102870D01*
X1314451Y100330D01*
X1314462Y100265D01*
X1314464Y100199D01*
X1314482Y100156D01*
X1314490Y100109D01*
X1314524Y100052D01*
X1314549Y99992D01*
X1314580Y99957D01*
X1314605Y99916D01*
X1314656Y99875D01*
X1314700Y99826D01*
X1314742Y99804D01*
X1314779Y99775D01*
X1314841Y99754D01*
X1314900Y99723D01*
X1314954Y99715D01*
X1314991Y99703D01*
X1315031Y99704D01*
X1315085Y99696D01*
X1318895Y99696D01*
X1318960Y99707D01*
G37*
D10*
X342900Y63500D03*
X12700Y825500D03*
D11*
X330200Y863600D03*
X25400Y863600D03*
X330200Y25400D03*
X25400Y25400D03*
D12*
X148900Y52860D03*
X206700Y52860D03*
D13*
X268097Y43942D02*
X273431Y43942D01*
X273431Y32258D01*
X268097Y32258D01*
X268097Y43942D01*
X268097Y34430D02*
X273431Y34430D01*
X273431Y36602D02*
X268097Y36602D01*
X268097Y38774D02*
X273431Y38774D01*
X273431Y40946D02*
X268097Y40946D01*
X268097Y43118D02*
X273431Y43118D01*
X265303Y43942D02*
X259969Y43942D01*
X265303Y43942D02*
X265303Y32258D01*
X259969Y32258D01*
X259969Y43942D01*
X259969Y34430D02*
X265303Y34430D01*
X265303Y36602D02*
X259969Y36602D01*
X259969Y38774D02*
X265303Y38774D01*
X265303Y40946D02*
X259969Y40946D01*
X259969Y43118D02*
X265303Y43118D01*
X6858Y446913D02*
X6858Y452247D01*
X18542Y452247D01*
X18542Y446913D01*
X6858Y446913D01*
X6858Y449085D02*
X18542Y449085D01*
X18542Y451257D02*
X6858Y451257D01*
X6858Y442087D02*
X6858Y436753D01*
X6858Y442087D02*
X18542Y442087D01*
X18542Y436753D01*
X6858Y436753D01*
X6858Y438925D02*
X18542Y438925D01*
X18542Y441097D02*
X6858Y441097D01*
D14*
X12700Y457200D03*
X12700Y431800D03*
D13*
X18542Y487553D02*
X18542Y492887D01*
X18542Y487553D02*
X6858Y487553D01*
X6858Y492887D01*
X18542Y492887D01*
X18542Y489725D02*
X6858Y489725D01*
X6858Y491897D02*
X18542Y491897D01*
X18542Y497713D02*
X18542Y503047D01*
X18542Y497713D02*
X6858Y497713D01*
X6858Y503047D01*
X18542Y503047D01*
X18542Y499885D02*
X6858Y499885D01*
X6858Y502057D02*
X18542Y502057D01*
D14*
X12700Y482600D03*
X12700Y508000D03*
D15*
X81904Y832674D02*
X95896Y832674D01*
X81904Y832674D02*
X81904Y871666D01*
X95896Y871666D01*
X95896Y832674D01*
X95896Y834838D02*
X81904Y834838D01*
X81904Y837002D02*
X95896Y837002D01*
X95896Y839166D02*
X81904Y839166D01*
X81904Y841330D02*
X95896Y841330D01*
X95896Y843494D02*
X81904Y843494D01*
X81904Y845658D02*
X95896Y845658D01*
X95896Y847822D02*
X81904Y847822D01*
X81904Y849986D02*
X95896Y849986D01*
X95896Y852150D02*
X81904Y852150D01*
X81904Y854314D02*
X95896Y854314D01*
X95896Y856478D02*
X81904Y856478D01*
X81904Y858642D02*
X95896Y858642D01*
X95896Y860806D02*
X81904Y860806D01*
X81904Y862970D02*
X95896Y862970D01*
X95896Y865134D02*
X81904Y865134D01*
X81904Y867298D02*
X95896Y867298D01*
X95896Y869462D02*
X81904Y869462D01*
X81904Y871626D02*
X95896Y871626D01*
X132704Y832674D02*
X146696Y832674D01*
X132704Y832674D02*
X132704Y871666D01*
X146696Y871666D01*
X146696Y832674D01*
X146696Y834838D02*
X132704Y834838D01*
X132704Y837002D02*
X146696Y837002D01*
X146696Y839166D02*
X132704Y839166D01*
X132704Y841330D02*
X146696Y841330D01*
X146696Y843494D02*
X132704Y843494D01*
X132704Y845658D02*
X146696Y845658D01*
X146696Y847822D02*
X132704Y847822D01*
X132704Y849986D02*
X146696Y849986D01*
X146696Y852150D02*
X132704Y852150D01*
X132704Y854314D02*
X146696Y854314D01*
X146696Y856478D02*
X132704Y856478D01*
X132704Y858642D02*
X146696Y858642D01*
X146696Y860806D02*
X132704Y860806D01*
X132704Y862970D02*
X146696Y862970D01*
X146696Y865134D02*
X132704Y865134D01*
X132704Y867298D02*
X146696Y867298D01*
X146696Y869462D02*
X132704Y869462D01*
X132704Y871626D02*
X146696Y871626D01*
X208904Y832674D02*
X222896Y832674D01*
X208904Y832674D02*
X208904Y871666D01*
X222896Y871666D01*
X222896Y832674D01*
X222896Y834838D02*
X208904Y834838D01*
X208904Y837002D02*
X222896Y837002D01*
X222896Y839166D02*
X208904Y839166D01*
X208904Y841330D02*
X222896Y841330D01*
X222896Y843494D02*
X208904Y843494D01*
X208904Y845658D02*
X222896Y845658D01*
X222896Y847822D02*
X208904Y847822D01*
X208904Y849986D02*
X222896Y849986D01*
X222896Y852150D02*
X208904Y852150D01*
X208904Y854314D02*
X222896Y854314D01*
X222896Y856478D02*
X208904Y856478D01*
X208904Y858642D02*
X222896Y858642D01*
X222896Y860806D02*
X208904Y860806D01*
X208904Y862970D02*
X222896Y862970D01*
X222896Y865134D02*
X208904Y865134D01*
X208904Y867298D02*
X222896Y867298D01*
X222896Y869462D02*
X208904Y869462D01*
X208904Y871626D02*
X222896Y871626D01*
X259704Y832674D02*
X273696Y832674D01*
X259704Y832674D02*
X259704Y871666D01*
X273696Y871666D01*
X273696Y832674D01*
X273696Y834838D02*
X259704Y834838D01*
X259704Y837002D02*
X273696Y837002D01*
X273696Y839166D02*
X259704Y839166D01*
X259704Y841330D02*
X273696Y841330D01*
X273696Y843494D02*
X259704Y843494D01*
X259704Y845658D02*
X273696Y845658D01*
X273696Y847822D02*
X259704Y847822D01*
X259704Y849986D02*
X273696Y849986D01*
X273696Y852150D02*
X259704Y852150D01*
X259704Y854314D02*
X273696Y854314D01*
X273696Y856478D02*
X259704Y856478D01*
X259704Y858642D02*
X273696Y858642D01*
X273696Y860806D02*
X259704Y860806D01*
X259704Y862970D02*
X273696Y862970D01*
X273696Y865134D02*
X259704Y865134D01*
X259704Y867298D02*
X273696Y867298D01*
X273696Y869462D02*
X259704Y869462D01*
X259704Y871626D02*
X273696Y871626D01*
D14*
X12700Y330200D03*
X12700Y355600D03*
X12700Y381000D03*
X12700Y406400D03*
D16*
X56794Y747192D03*
X298806Y747192D03*
D17*
X50800Y127000D03*
D18*
X112647Y95756D02*
X118239Y95756D01*
X112647Y95756D02*
X112647Y107444D01*
X118239Y107444D01*
X118239Y95756D01*
X118239Y97925D02*
X112647Y97925D01*
X112647Y100094D02*
X118239Y100094D01*
X118239Y102263D02*
X112647Y102263D01*
X112647Y104432D02*
X118239Y104432D01*
X118239Y106601D02*
X112647Y106601D01*
X123061Y95756D02*
X128653Y95756D01*
X123061Y95756D02*
X123061Y107444D01*
X128653Y107444D01*
X128653Y95756D01*
X128653Y97925D02*
X123061Y97925D01*
X123061Y100094D02*
X128653Y100094D01*
X128653Y102263D02*
X123061Y102263D01*
X123061Y104432D02*
X128653Y104432D01*
X128653Y106601D02*
X123061Y106601D01*
X226947Y95756D02*
X232539Y95756D01*
X226947Y95756D02*
X226947Y107444D01*
X232539Y107444D01*
X232539Y95756D01*
X232539Y97925D02*
X226947Y97925D01*
X226947Y100094D02*
X232539Y100094D01*
X232539Y102263D02*
X226947Y102263D01*
X226947Y104432D02*
X232539Y104432D01*
X232539Y106601D02*
X226947Y106601D01*
X237361Y95756D02*
X242953Y95756D01*
X237361Y95756D02*
X237361Y107444D01*
X242953Y107444D01*
X242953Y95756D01*
X242953Y97925D02*
X237361Y97925D01*
X237361Y100094D02*
X242953Y100094D01*
X242953Y102263D02*
X237361Y102263D01*
X237361Y104432D02*
X242953Y104432D01*
X242953Y106601D02*
X237361Y106601D01*
D19*
X302800Y266700D03*
D20*
X52800Y266700D03*
D18*
X318768Y107444D02*
X324360Y107444D01*
X324360Y95756D01*
X318768Y95756D01*
X318768Y107444D01*
X318768Y97925D02*
X324360Y97925D01*
X324360Y100094D02*
X318768Y100094D01*
X318768Y102263D02*
X324360Y102263D01*
X324360Y104432D02*
X318768Y104432D01*
X318768Y106601D02*
X324360Y106601D01*
X313946Y107444D02*
X308354Y107444D01*
X313946Y107444D02*
X313946Y95756D01*
X308354Y95756D01*
X308354Y107444D01*
X308354Y97925D02*
X313946Y97925D01*
X313946Y100094D02*
X308354Y100094D01*
X308354Y102263D02*
X313946Y102263D01*
X313946Y104432D02*
X308354Y104432D01*
X308354Y106601D02*
X313946Y106601D01*
X303532Y107444D02*
X297940Y107444D01*
X303532Y107444D02*
X303532Y95756D01*
X297940Y95756D01*
X297940Y107444D01*
X297940Y97925D02*
X303532Y97925D01*
X303532Y100094D02*
X297940Y100094D01*
X297940Y102263D02*
X303532Y102263D01*
X303532Y104432D02*
X297940Y104432D01*
X297940Y106601D02*
X303532Y106601D01*
D21*
X164904Y33556D02*
X164904Y4544D01*
X164904Y33556D02*
X172916Y33556D01*
X172916Y4544D01*
X164904Y4544D01*
X164904Y6690D02*
X172916Y6690D01*
X172916Y8836D02*
X164904Y8836D01*
X164904Y10982D02*
X172916Y10982D01*
X172916Y13128D02*
X164904Y13128D01*
X164904Y15274D02*
X172916Y15274D01*
X172916Y17420D02*
X164904Y17420D01*
X164904Y19566D02*
X172916Y19566D01*
X172916Y21712D02*
X164904Y21712D01*
X164904Y23858D02*
X172916Y23858D01*
X172916Y26004D02*
X164904Y26004D01*
X164904Y28150D02*
X172916Y28150D01*
X172916Y30296D02*
X164904Y30296D01*
X164904Y32442D02*
X172916Y32442D01*
X147124Y33556D02*
X147124Y4544D01*
X147124Y33556D02*
X155136Y33556D01*
X155136Y4544D01*
X147124Y4544D01*
X147124Y6690D02*
X155136Y6690D01*
X155136Y8836D02*
X147124Y8836D01*
X147124Y10982D02*
X155136Y10982D01*
X155136Y13128D02*
X147124Y13128D01*
X147124Y15274D02*
X155136Y15274D01*
X155136Y17420D02*
X147124Y17420D01*
X147124Y19566D02*
X155136Y19566D01*
X155136Y21712D02*
X147124Y21712D01*
X147124Y23858D02*
X155136Y23858D01*
X155136Y26004D02*
X147124Y26004D01*
X147124Y28150D02*
X155136Y28150D01*
X155136Y30296D02*
X147124Y30296D01*
X147124Y32442D02*
X155136Y32442D01*
X182684Y33556D02*
X182684Y4544D01*
X182684Y33556D02*
X190696Y33556D01*
X190696Y4544D01*
X182684Y4544D01*
X182684Y6690D02*
X190696Y6690D01*
X190696Y8836D02*
X182684Y8836D01*
X182684Y10982D02*
X190696Y10982D01*
X190696Y13128D02*
X182684Y13128D01*
X182684Y15274D02*
X190696Y15274D01*
X190696Y17420D02*
X182684Y17420D01*
X182684Y19566D02*
X190696Y19566D01*
X190696Y21712D02*
X182684Y21712D01*
X182684Y23858D02*
X190696Y23858D01*
X190696Y26004D02*
X182684Y26004D01*
X182684Y28150D02*
X190696Y28150D01*
X190696Y30296D02*
X182684Y30296D01*
X182684Y32442D02*
X190696Y32442D01*
X200464Y33556D02*
X200464Y4544D01*
X200464Y33556D02*
X208476Y33556D01*
X208476Y4544D01*
X200464Y4544D01*
X200464Y6690D02*
X208476Y6690D01*
X208476Y8836D02*
X200464Y8836D01*
X200464Y10982D02*
X208476Y10982D01*
X208476Y13128D02*
X200464Y13128D01*
X200464Y15274D02*
X208476Y15274D01*
X208476Y17420D02*
X200464Y17420D01*
X200464Y19566D02*
X208476Y19566D01*
X208476Y21712D02*
X200464Y21712D01*
X200464Y23858D02*
X208476Y23858D01*
X208476Y26004D02*
X200464Y26004D01*
X200464Y28150D02*
X208476Y28150D01*
X208476Y30296D02*
X200464Y30296D01*
X200464Y32442D02*
X208476Y32442D01*
D10*
X703580Y63500D03*
X373380Y825500D03*
D11*
X690880Y863600D03*
X386080Y863600D03*
X690880Y25400D03*
X386080Y25400D03*
D12*
X509580Y52860D03*
X567380Y52860D03*
D13*
X628777Y43942D02*
X634111Y43942D01*
X634111Y32258D01*
X628777Y32258D01*
X628777Y43942D01*
X628777Y34430D02*
X634111Y34430D01*
X634111Y36602D02*
X628777Y36602D01*
X628777Y38774D02*
X634111Y38774D01*
X634111Y40946D02*
X628777Y40946D01*
X628777Y43118D02*
X634111Y43118D01*
X625983Y43942D02*
X620649Y43942D01*
X625983Y43942D02*
X625983Y32258D01*
X620649Y32258D01*
X620649Y43942D01*
X620649Y34430D02*
X625983Y34430D01*
X625983Y36602D02*
X620649Y36602D01*
X620649Y38774D02*
X625983Y38774D01*
X625983Y40946D02*
X620649Y40946D01*
X620649Y43118D02*
X625983Y43118D01*
X367538Y446913D02*
X367538Y452247D01*
X379222Y452247D01*
X379222Y446913D01*
X367538Y446913D01*
X367538Y449085D02*
X379222Y449085D01*
X379222Y451257D02*
X367538Y451257D01*
X367538Y442087D02*
X367538Y436753D01*
X367538Y442087D02*
X379222Y442087D01*
X379222Y436753D01*
X367538Y436753D01*
X367538Y438925D02*
X379222Y438925D01*
X379222Y441097D02*
X367538Y441097D01*
D14*
X373380Y457200D03*
X373380Y431800D03*
D13*
X379222Y487553D02*
X379222Y492887D01*
X379222Y487553D02*
X367538Y487553D01*
X367538Y492887D01*
X379222Y492887D01*
X379222Y489725D02*
X367538Y489725D01*
X367538Y491897D02*
X379222Y491897D01*
X379222Y497713D02*
X379222Y503047D01*
X379222Y497713D02*
X367538Y497713D01*
X367538Y503047D01*
X379222Y503047D01*
X379222Y499885D02*
X367538Y499885D01*
X367538Y502057D02*
X379222Y502057D01*
D14*
X373380Y482600D03*
X373380Y508000D03*
D15*
X442584Y832674D02*
X456576Y832674D01*
X442584Y832674D02*
X442584Y871666D01*
X456576Y871666D01*
X456576Y832674D01*
X456576Y834838D02*
X442584Y834838D01*
X442584Y837002D02*
X456576Y837002D01*
X456576Y839166D02*
X442584Y839166D01*
X442584Y841330D02*
X456576Y841330D01*
X456576Y843494D02*
X442584Y843494D01*
X442584Y845658D02*
X456576Y845658D01*
X456576Y847822D02*
X442584Y847822D01*
X442584Y849986D02*
X456576Y849986D01*
X456576Y852150D02*
X442584Y852150D01*
X442584Y854314D02*
X456576Y854314D01*
X456576Y856478D02*
X442584Y856478D01*
X442584Y858642D02*
X456576Y858642D01*
X456576Y860806D02*
X442584Y860806D01*
X442584Y862970D02*
X456576Y862970D01*
X456576Y865134D02*
X442584Y865134D01*
X442584Y867298D02*
X456576Y867298D01*
X456576Y869462D02*
X442584Y869462D01*
X442584Y871626D02*
X456576Y871626D01*
X493384Y832674D02*
X507376Y832674D01*
X493384Y832674D02*
X493384Y871666D01*
X507376Y871666D01*
X507376Y832674D01*
X507376Y834838D02*
X493384Y834838D01*
X493384Y837002D02*
X507376Y837002D01*
X507376Y839166D02*
X493384Y839166D01*
X493384Y841330D02*
X507376Y841330D01*
X507376Y843494D02*
X493384Y843494D01*
X493384Y845658D02*
X507376Y845658D01*
X507376Y847822D02*
X493384Y847822D01*
X493384Y849986D02*
X507376Y849986D01*
X507376Y852150D02*
X493384Y852150D01*
X493384Y854314D02*
X507376Y854314D01*
X507376Y856478D02*
X493384Y856478D01*
X493384Y858642D02*
X507376Y858642D01*
X507376Y860806D02*
X493384Y860806D01*
X493384Y862970D02*
X507376Y862970D01*
X507376Y865134D02*
X493384Y865134D01*
X493384Y867298D02*
X507376Y867298D01*
X507376Y869462D02*
X493384Y869462D01*
X493384Y871626D02*
X507376Y871626D01*
X569584Y832674D02*
X583576Y832674D01*
X569584Y832674D02*
X569584Y871666D01*
X583576Y871666D01*
X583576Y832674D01*
X583576Y834838D02*
X569584Y834838D01*
X569584Y837002D02*
X583576Y837002D01*
X583576Y839166D02*
X569584Y839166D01*
X569584Y841330D02*
X583576Y841330D01*
X583576Y843494D02*
X569584Y843494D01*
X569584Y845658D02*
X583576Y845658D01*
X583576Y847822D02*
X569584Y847822D01*
X569584Y849986D02*
X583576Y849986D01*
X583576Y852150D02*
X569584Y852150D01*
X569584Y854314D02*
X583576Y854314D01*
X583576Y856478D02*
X569584Y856478D01*
X569584Y858642D02*
X583576Y858642D01*
X583576Y860806D02*
X569584Y860806D01*
X569584Y862970D02*
X583576Y862970D01*
X583576Y865134D02*
X569584Y865134D01*
X569584Y867298D02*
X583576Y867298D01*
X583576Y869462D02*
X569584Y869462D01*
X569584Y871626D02*
X583576Y871626D01*
X620384Y832674D02*
X634376Y832674D01*
X620384Y832674D02*
X620384Y871666D01*
X634376Y871666D01*
X634376Y832674D01*
X634376Y834838D02*
X620384Y834838D01*
X620384Y837002D02*
X634376Y837002D01*
X634376Y839166D02*
X620384Y839166D01*
X620384Y841330D02*
X634376Y841330D01*
X634376Y843494D02*
X620384Y843494D01*
X620384Y845658D02*
X634376Y845658D01*
X634376Y847822D02*
X620384Y847822D01*
X620384Y849986D02*
X634376Y849986D01*
X634376Y852150D02*
X620384Y852150D01*
X620384Y854314D02*
X634376Y854314D01*
X634376Y856478D02*
X620384Y856478D01*
X620384Y858642D02*
X634376Y858642D01*
X634376Y860806D02*
X620384Y860806D01*
X620384Y862970D02*
X634376Y862970D01*
X634376Y865134D02*
X620384Y865134D01*
X620384Y867298D02*
X634376Y867298D01*
X634376Y869462D02*
X620384Y869462D01*
X620384Y871626D02*
X634376Y871626D01*
D14*
X373380Y330200D03*
X373380Y355600D03*
X373380Y381000D03*
X373380Y406400D03*
D16*
X417474Y747192D03*
X659486Y747192D03*
D17*
X411480Y127000D03*
D18*
X473327Y95756D02*
X478919Y95756D01*
X473327Y95756D02*
X473327Y107444D01*
X478919Y107444D01*
X478919Y95756D01*
X478919Y97925D02*
X473327Y97925D01*
X473327Y100094D02*
X478919Y100094D01*
X478919Y102263D02*
X473327Y102263D01*
X473327Y104432D02*
X478919Y104432D01*
X478919Y106601D02*
X473327Y106601D01*
X483741Y95756D02*
X489333Y95756D01*
X483741Y95756D02*
X483741Y107444D01*
X489333Y107444D01*
X489333Y95756D01*
X489333Y97925D02*
X483741Y97925D01*
X483741Y100094D02*
X489333Y100094D01*
X489333Y102263D02*
X483741Y102263D01*
X483741Y104432D02*
X489333Y104432D01*
X489333Y106601D02*
X483741Y106601D01*
X587627Y95756D02*
X593219Y95756D01*
X587627Y95756D02*
X587627Y107444D01*
X593219Y107444D01*
X593219Y95756D01*
X593219Y97925D02*
X587627Y97925D01*
X587627Y100094D02*
X593219Y100094D01*
X593219Y102263D02*
X587627Y102263D01*
X587627Y104432D02*
X593219Y104432D01*
X593219Y106601D02*
X587627Y106601D01*
X598041Y95756D02*
X603633Y95756D01*
X598041Y95756D02*
X598041Y107444D01*
X603633Y107444D01*
X603633Y95756D01*
X603633Y97925D02*
X598041Y97925D01*
X598041Y100094D02*
X603633Y100094D01*
X603633Y102263D02*
X598041Y102263D01*
X598041Y104432D02*
X603633Y104432D01*
X603633Y106601D02*
X598041Y106601D01*
D19*
X663480Y266700D03*
D20*
X413480Y266700D03*
D18*
X679448Y107444D02*
X685040Y107444D01*
X685040Y95756D01*
X679448Y95756D01*
X679448Y107444D01*
X679448Y97925D02*
X685040Y97925D01*
X685040Y100094D02*
X679448Y100094D01*
X679448Y102263D02*
X685040Y102263D01*
X685040Y104432D02*
X679448Y104432D01*
X679448Y106601D02*
X685040Y106601D01*
X674626Y107444D02*
X669034Y107444D01*
X674626Y107444D02*
X674626Y95756D01*
X669034Y95756D01*
X669034Y107444D01*
X669034Y97925D02*
X674626Y97925D01*
X674626Y100094D02*
X669034Y100094D01*
X669034Y102263D02*
X674626Y102263D01*
X674626Y104432D02*
X669034Y104432D01*
X669034Y106601D02*
X674626Y106601D01*
X664212Y107444D02*
X658620Y107444D01*
X664212Y107444D02*
X664212Y95756D01*
X658620Y95756D01*
X658620Y107444D01*
X658620Y97925D02*
X664212Y97925D01*
X664212Y100094D02*
X658620Y100094D01*
X658620Y102263D02*
X664212Y102263D01*
X664212Y104432D02*
X658620Y104432D01*
X658620Y106601D02*
X664212Y106601D01*
D21*
X525584Y33556D02*
X525584Y4544D01*
X525584Y33556D02*
X533596Y33556D01*
X533596Y4544D01*
X525584Y4544D01*
X525584Y6690D02*
X533596Y6690D01*
X533596Y8836D02*
X525584Y8836D01*
X525584Y10982D02*
X533596Y10982D01*
X533596Y13128D02*
X525584Y13128D01*
X525584Y15274D02*
X533596Y15274D01*
X533596Y17420D02*
X525584Y17420D01*
X525584Y19566D02*
X533596Y19566D01*
X533596Y21712D02*
X525584Y21712D01*
X525584Y23858D02*
X533596Y23858D01*
X533596Y26004D02*
X525584Y26004D01*
X525584Y28150D02*
X533596Y28150D01*
X533596Y30296D02*
X525584Y30296D01*
X525584Y32442D02*
X533596Y32442D01*
X507804Y33556D02*
X507804Y4544D01*
X507804Y33556D02*
X515816Y33556D01*
X515816Y4544D01*
X507804Y4544D01*
X507804Y6690D02*
X515816Y6690D01*
X515816Y8836D02*
X507804Y8836D01*
X507804Y10982D02*
X515816Y10982D01*
X515816Y13128D02*
X507804Y13128D01*
X507804Y15274D02*
X515816Y15274D01*
X515816Y17420D02*
X507804Y17420D01*
X507804Y19566D02*
X515816Y19566D01*
X515816Y21712D02*
X507804Y21712D01*
X507804Y23858D02*
X515816Y23858D01*
X515816Y26004D02*
X507804Y26004D01*
X507804Y28150D02*
X515816Y28150D01*
X515816Y30296D02*
X507804Y30296D01*
X507804Y32442D02*
X515816Y32442D01*
X543364Y33556D02*
X543364Y4544D01*
X543364Y33556D02*
X551376Y33556D01*
X551376Y4544D01*
X543364Y4544D01*
X543364Y6690D02*
X551376Y6690D01*
X551376Y8836D02*
X543364Y8836D01*
X543364Y10982D02*
X551376Y10982D01*
X551376Y13128D02*
X543364Y13128D01*
X543364Y15274D02*
X551376Y15274D01*
X551376Y17420D02*
X543364Y17420D01*
X543364Y19566D02*
X551376Y19566D01*
X551376Y21712D02*
X543364Y21712D01*
X543364Y23858D02*
X551376Y23858D01*
X551376Y26004D02*
X543364Y26004D01*
X543364Y28150D02*
X551376Y28150D01*
X551376Y30296D02*
X543364Y30296D01*
X543364Y32442D02*
X551376Y32442D01*
X561144Y33556D02*
X561144Y4544D01*
X561144Y33556D02*
X569156Y33556D01*
X569156Y4544D01*
X561144Y4544D01*
X561144Y6690D02*
X569156Y6690D01*
X569156Y8836D02*
X561144Y8836D01*
X561144Y10982D02*
X569156Y10982D01*
X569156Y13128D02*
X561144Y13128D01*
X561144Y15274D02*
X569156Y15274D01*
X569156Y17420D02*
X561144Y17420D01*
X561144Y19566D02*
X569156Y19566D01*
X569156Y21712D02*
X561144Y21712D01*
X561144Y23858D02*
X569156Y23858D01*
X569156Y26004D02*
X561144Y26004D01*
X561144Y28150D02*
X569156Y28150D01*
X569156Y30296D02*
X561144Y30296D01*
X561144Y32442D02*
X569156Y32442D01*
D10*
X1064260Y63500D03*
X734060Y825500D03*
D11*
X1051560Y863600D03*
X746760Y863600D03*
X1051560Y25400D03*
X746760Y25400D03*
D12*
X870260Y52860D03*
X928060Y52860D03*
D13*
X989457Y43942D02*
X994791Y43942D01*
X994791Y32258D01*
X989457Y32258D01*
X989457Y43942D01*
X989457Y34430D02*
X994791Y34430D01*
X994791Y36602D02*
X989457Y36602D01*
X989457Y38774D02*
X994791Y38774D01*
X994791Y40946D02*
X989457Y40946D01*
X989457Y43118D02*
X994791Y43118D01*
X986663Y43942D02*
X981329Y43942D01*
X986663Y43942D02*
X986663Y32258D01*
X981329Y32258D01*
X981329Y43942D01*
X981329Y34430D02*
X986663Y34430D01*
X986663Y36602D02*
X981329Y36602D01*
X981329Y38774D02*
X986663Y38774D01*
X986663Y40946D02*
X981329Y40946D01*
X981329Y43118D02*
X986663Y43118D01*
X728218Y446913D02*
X728218Y452247D01*
X739902Y452247D01*
X739902Y446913D01*
X728218Y446913D01*
X728218Y449085D02*
X739902Y449085D01*
X739902Y451257D02*
X728218Y451257D01*
X728218Y442087D02*
X728218Y436753D01*
X728218Y442087D02*
X739902Y442087D01*
X739902Y436753D01*
X728218Y436753D01*
X728218Y438925D02*
X739902Y438925D01*
X739902Y441097D02*
X728218Y441097D01*
D14*
X734060Y457200D03*
X734060Y431800D03*
D13*
X739902Y487553D02*
X739902Y492887D01*
X739902Y487553D02*
X728218Y487553D01*
X728218Y492887D01*
X739902Y492887D01*
X739902Y489725D02*
X728218Y489725D01*
X728218Y491897D02*
X739902Y491897D01*
X739902Y497713D02*
X739902Y503047D01*
X739902Y497713D02*
X728218Y497713D01*
X728218Y503047D01*
X739902Y503047D01*
X739902Y499885D02*
X728218Y499885D01*
X728218Y502057D02*
X739902Y502057D01*
D14*
X734060Y482600D03*
X734060Y508000D03*
D15*
X803264Y832674D02*
X817256Y832674D01*
X803264Y832674D02*
X803264Y871666D01*
X817256Y871666D01*
X817256Y832674D01*
X817256Y834838D02*
X803264Y834838D01*
X803264Y837002D02*
X817256Y837002D01*
X817256Y839166D02*
X803264Y839166D01*
X803264Y841330D02*
X817256Y841330D01*
X817256Y843494D02*
X803264Y843494D01*
X803264Y845658D02*
X817256Y845658D01*
X817256Y847822D02*
X803264Y847822D01*
X803264Y849986D02*
X817256Y849986D01*
X817256Y852150D02*
X803264Y852150D01*
X803264Y854314D02*
X817256Y854314D01*
X817256Y856478D02*
X803264Y856478D01*
X803264Y858642D02*
X817256Y858642D01*
X817256Y860806D02*
X803264Y860806D01*
X803264Y862970D02*
X817256Y862970D01*
X817256Y865134D02*
X803264Y865134D01*
X803264Y867298D02*
X817256Y867298D01*
X817256Y869462D02*
X803264Y869462D01*
X803264Y871626D02*
X817256Y871626D01*
X854064Y832674D02*
X868056Y832674D01*
X854064Y832674D02*
X854064Y871666D01*
X868056Y871666D01*
X868056Y832674D01*
X868056Y834838D02*
X854064Y834838D01*
X854064Y837002D02*
X868056Y837002D01*
X868056Y839166D02*
X854064Y839166D01*
X854064Y841330D02*
X868056Y841330D01*
X868056Y843494D02*
X854064Y843494D01*
X854064Y845658D02*
X868056Y845658D01*
X868056Y847822D02*
X854064Y847822D01*
X854064Y849986D02*
X868056Y849986D01*
X868056Y852150D02*
X854064Y852150D01*
X854064Y854314D02*
X868056Y854314D01*
X868056Y856478D02*
X854064Y856478D01*
X854064Y858642D02*
X868056Y858642D01*
X868056Y860806D02*
X854064Y860806D01*
X854064Y862970D02*
X868056Y862970D01*
X868056Y865134D02*
X854064Y865134D01*
X854064Y867298D02*
X868056Y867298D01*
X868056Y869462D02*
X854064Y869462D01*
X854064Y871626D02*
X868056Y871626D01*
X930264Y832674D02*
X944256Y832674D01*
X930264Y832674D02*
X930264Y871666D01*
X944256Y871666D01*
X944256Y832674D01*
X944256Y834838D02*
X930264Y834838D01*
X930264Y837002D02*
X944256Y837002D01*
X944256Y839166D02*
X930264Y839166D01*
X930264Y841330D02*
X944256Y841330D01*
X944256Y843494D02*
X930264Y843494D01*
X930264Y845658D02*
X944256Y845658D01*
X944256Y847822D02*
X930264Y847822D01*
X930264Y849986D02*
X944256Y849986D01*
X944256Y852150D02*
X930264Y852150D01*
X930264Y854314D02*
X944256Y854314D01*
X944256Y856478D02*
X930264Y856478D01*
X930264Y858642D02*
X944256Y858642D01*
X944256Y860806D02*
X930264Y860806D01*
X930264Y862970D02*
X944256Y862970D01*
X944256Y865134D02*
X930264Y865134D01*
X930264Y867298D02*
X944256Y867298D01*
X944256Y869462D02*
X930264Y869462D01*
X930264Y871626D02*
X944256Y871626D01*
X981064Y832674D02*
X995056Y832674D01*
X981064Y832674D02*
X981064Y871666D01*
X995056Y871666D01*
X995056Y832674D01*
X995056Y834838D02*
X981064Y834838D01*
X981064Y837002D02*
X995056Y837002D01*
X995056Y839166D02*
X981064Y839166D01*
X981064Y841330D02*
X995056Y841330D01*
X995056Y843494D02*
X981064Y843494D01*
X981064Y845658D02*
X995056Y845658D01*
X995056Y847822D02*
X981064Y847822D01*
X981064Y849986D02*
X995056Y849986D01*
X995056Y852150D02*
X981064Y852150D01*
X981064Y854314D02*
X995056Y854314D01*
X995056Y856478D02*
X981064Y856478D01*
X981064Y858642D02*
X995056Y858642D01*
X995056Y860806D02*
X981064Y860806D01*
X981064Y862970D02*
X995056Y862970D01*
X995056Y865134D02*
X981064Y865134D01*
X981064Y867298D02*
X995056Y867298D01*
X995056Y869462D02*
X981064Y869462D01*
X981064Y871626D02*
X995056Y871626D01*
D14*
X734060Y330200D03*
X734060Y355600D03*
X734060Y381000D03*
X734060Y406400D03*
D16*
X778154Y747192D03*
X1020166Y747192D03*
D17*
X772160Y127000D03*
D18*
X834007Y95756D02*
X839599Y95756D01*
X834007Y95756D02*
X834007Y107444D01*
X839599Y107444D01*
X839599Y95756D01*
X839599Y97925D02*
X834007Y97925D01*
X834007Y100094D02*
X839599Y100094D01*
X839599Y102263D02*
X834007Y102263D01*
X834007Y104432D02*
X839599Y104432D01*
X839599Y106601D02*
X834007Y106601D01*
X844421Y95756D02*
X850013Y95756D01*
X844421Y95756D02*
X844421Y107444D01*
X850013Y107444D01*
X850013Y95756D01*
X850013Y97925D02*
X844421Y97925D01*
X844421Y100094D02*
X850013Y100094D01*
X850013Y102263D02*
X844421Y102263D01*
X844421Y104432D02*
X850013Y104432D01*
X850013Y106601D02*
X844421Y106601D01*
X948307Y95756D02*
X953899Y95756D01*
X948307Y95756D02*
X948307Y107444D01*
X953899Y107444D01*
X953899Y95756D01*
X953899Y97925D02*
X948307Y97925D01*
X948307Y100094D02*
X953899Y100094D01*
X953899Y102263D02*
X948307Y102263D01*
X948307Y104432D02*
X953899Y104432D01*
X953899Y106601D02*
X948307Y106601D01*
X958721Y95756D02*
X964313Y95756D01*
X958721Y95756D02*
X958721Y107444D01*
X964313Y107444D01*
X964313Y95756D01*
X964313Y97925D02*
X958721Y97925D01*
X958721Y100094D02*
X964313Y100094D01*
X964313Y102263D02*
X958721Y102263D01*
X958721Y104432D02*
X964313Y104432D01*
X964313Y106601D02*
X958721Y106601D01*
D19*
X1024160Y266700D03*
D20*
X774160Y266700D03*
D18*
X1040128Y107444D02*
X1045720Y107444D01*
X1045720Y95756D01*
X1040128Y95756D01*
X1040128Y107444D01*
X1040128Y97925D02*
X1045720Y97925D01*
X1045720Y100094D02*
X1040128Y100094D01*
X1040128Y102263D02*
X1045720Y102263D01*
X1045720Y104432D02*
X1040128Y104432D01*
X1040128Y106601D02*
X1045720Y106601D01*
X1035306Y107444D02*
X1029714Y107444D01*
X1035306Y107444D02*
X1035306Y95756D01*
X1029714Y95756D01*
X1029714Y107444D01*
X1029714Y97925D02*
X1035306Y97925D01*
X1035306Y100094D02*
X1029714Y100094D01*
X1029714Y102263D02*
X1035306Y102263D01*
X1035306Y104432D02*
X1029714Y104432D01*
X1029714Y106601D02*
X1035306Y106601D01*
X1024892Y107444D02*
X1019300Y107444D01*
X1024892Y107444D02*
X1024892Y95756D01*
X1019300Y95756D01*
X1019300Y107444D01*
X1019300Y97925D02*
X1024892Y97925D01*
X1024892Y100094D02*
X1019300Y100094D01*
X1019300Y102263D02*
X1024892Y102263D01*
X1024892Y104432D02*
X1019300Y104432D01*
X1019300Y106601D02*
X1024892Y106601D01*
D21*
X886264Y33556D02*
X886264Y4544D01*
X886264Y33556D02*
X894276Y33556D01*
X894276Y4544D01*
X886264Y4544D01*
X886264Y6690D02*
X894276Y6690D01*
X894276Y8836D02*
X886264Y8836D01*
X886264Y10982D02*
X894276Y10982D01*
X894276Y13128D02*
X886264Y13128D01*
X886264Y15274D02*
X894276Y15274D01*
X894276Y17420D02*
X886264Y17420D01*
X886264Y19566D02*
X894276Y19566D01*
X894276Y21712D02*
X886264Y21712D01*
X886264Y23858D02*
X894276Y23858D01*
X894276Y26004D02*
X886264Y26004D01*
X886264Y28150D02*
X894276Y28150D01*
X894276Y30296D02*
X886264Y30296D01*
X886264Y32442D02*
X894276Y32442D01*
X868484Y33556D02*
X868484Y4544D01*
X868484Y33556D02*
X876496Y33556D01*
X876496Y4544D01*
X868484Y4544D01*
X868484Y6690D02*
X876496Y6690D01*
X876496Y8836D02*
X868484Y8836D01*
X868484Y10982D02*
X876496Y10982D01*
X876496Y13128D02*
X868484Y13128D01*
X868484Y15274D02*
X876496Y15274D01*
X876496Y17420D02*
X868484Y17420D01*
X868484Y19566D02*
X876496Y19566D01*
X876496Y21712D02*
X868484Y21712D01*
X868484Y23858D02*
X876496Y23858D01*
X876496Y26004D02*
X868484Y26004D01*
X868484Y28150D02*
X876496Y28150D01*
X876496Y30296D02*
X868484Y30296D01*
X868484Y32442D02*
X876496Y32442D01*
X904044Y33556D02*
X904044Y4544D01*
X904044Y33556D02*
X912056Y33556D01*
X912056Y4544D01*
X904044Y4544D01*
X904044Y6690D02*
X912056Y6690D01*
X912056Y8836D02*
X904044Y8836D01*
X904044Y10982D02*
X912056Y10982D01*
X912056Y13128D02*
X904044Y13128D01*
X904044Y15274D02*
X912056Y15274D01*
X912056Y17420D02*
X904044Y17420D01*
X904044Y19566D02*
X912056Y19566D01*
X912056Y21712D02*
X904044Y21712D01*
X904044Y23858D02*
X912056Y23858D01*
X912056Y26004D02*
X904044Y26004D01*
X904044Y28150D02*
X912056Y28150D01*
X912056Y30296D02*
X904044Y30296D01*
X904044Y32442D02*
X912056Y32442D01*
X921824Y33556D02*
X921824Y4544D01*
X921824Y33556D02*
X929836Y33556D01*
X929836Y4544D01*
X921824Y4544D01*
X921824Y6690D02*
X929836Y6690D01*
X929836Y8836D02*
X921824Y8836D01*
X921824Y10982D02*
X929836Y10982D01*
X929836Y13128D02*
X921824Y13128D01*
X921824Y15274D02*
X929836Y15274D01*
X929836Y17420D02*
X921824Y17420D01*
X921824Y19566D02*
X929836Y19566D01*
X929836Y21712D02*
X921824Y21712D01*
X921824Y23858D02*
X929836Y23858D01*
X929836Y26004D02*
X921824Y26004D01*
X921824Y28150D02*
X929836Y28150D01*
X929836Y30296D02*
X921824Y30296D01*
X921824Y32442D02*
X929836Y32442D01*
D10*
X1424940Y63500D03*
X1094740Y825500D03*
D11*
X1412240Y863600D03*
X1107440Y863600D03*
X1412240Y25400D03*
X1107440Y25400D03*
D12*
X1230940Y52860D03*
X1288740Y52860D03*
D13*
X1350137Y43942D02*
X1355471Y43942D01*
X1355471Y32258D01*
X1350137Y32258D01*
X1350137Y43942D01*
X1350137Y34430D02*
X1355471Y34430D01*
X1355471Y36602D02*
X1350137Y36602D01*
X1350137Y38774D02*
X1355471Y38774D01*
X1355471Y40946D02*
X1350137Y40946D01*
X1350137Y43118D02*
X1355471Y43118D01*
X1347343Y43942D02*
X1342009Y43942D01*
X1347343Y43942D02*
X1347343Y32258D01*
X1342009Y32258D01*
X1342009Y43942D01*
X1342009Y34430D02*
X1347343Y34430D01*
X1347343Y36602D02*
X1342009Y36602D01*
X1342009Y38774D02*
X1347343Y38774D01*
X1347343Y40946D02*
X1342009Y40946D01*
X1342009Y43118D02*
X1347343Y43118D01*
X1088898Y446913D02*
X1088898Y452247D01*
X1100582Y452247D01*
X1100582Y446913D01*
X1088898Y446913D01*
X1088898Y449085D02*
X1100582Y449085D01*
X1100582Y451257D02*
X1088898Y451257D01*
X1088898Y442087D02*
X1088898Y436753D01*
X1088898Y442087D02*
X1100582Y442087D01*
X1100582Y436753D01*
X1088898Y436753D01*
X1088898Y438925D02*
X1100582Y438925D01*
X1100582Y441097D02*
X1088898Y441097D01*
D14*
X1094740Y457200D03*
X1094740Y431800D03*
D13*
X1100582Y487553D02*
X1100582Y492887D01*
X1100582Y487553D02*
X1088898Y487553D01*
X1088898Y492887D01*
X1100582Y492887D01*
X1100582Y489725D02*
X1088898Y489725D01*
X1088898Y491897D02*
X1100582Y491897D01*
X1100582Y497713D02*
X1100582Y503047D01*
X1100582Y497713D02*
X1088898Y497713D01*
X1088898Y503047D01*
X1100582Y503047D01*
X1100582Y499885D02*
X1088898Y499885D01*
X1088898Y502057D02*
X1100582Y502057D01*
D14*
X1094740Y482600D03*
X1094740Y508000D03*
D15*
X1163944Y832674D02*
X1177936Y832674D01*
X1163944Y832674D02*
X1163944Y871666D01*
X1177936Y871666D01*
X1177936Y832674D01*
X1177936Y834838D02*
X1163944Y834838D01*
X1163944Y837002D02*
X1177936Y837002D01*
X1177936Y839166D02*
X1163944Y839166D01*
X1163944Y841330D02*
X1177936Y841330D01*
X1177936Y843494D02*
X1163944Y843494D01*
X1163944Y845658D02*
X1177936Y845658D01*
X1177936Y847822D02*
X1163944Y847822D01*
X1163944Y849986D02*
X1177936Y849986D01*
X1177936Y852150D02*
X1163944Y852150D01*
X1163944Y854314D02*
X1177936Y854314D01*
X1177936Y856478D02*
X1163944Y856478D01*
X1163944Y858642D02*
X1177936Y858642D01*
X1177936Y860806D02*
X1163944Y860806D01*
X1163944Y862970D02*
X1177936Y862970D01*
X1177936Y865134D02*
X1163944Y865134D01*
X1163944Y867298D02*
X1177936Y867298D01*
X1177936Y869462D02*
X1163944Y869462D01*
X1163944Y871626D02*
X1177936Y871626D01*
X1214744Y832674D02*
X1228736Y832674D01*
X1214744Y832674D02*
X1214744Y871666D01*
X1228736Y871666D01*
X1228736Y832674D01*
X1228736Y834838D02*
X1214744Y834838D01*
X1214744Y837002D02*
X1228736Y837002D01*
X1228736Y839166D02*
X1214744Y839166D01*
X1214744Y841330D02*
X1228736Y841330D01*
X1228736Y843494D02*
X1214744Y843494D01*
X1214744Y845658D02*
X1228736Y845658D01*
X1228736Y847822D02*
X1214744Y847822D01*
X1214744Y849986D02*
X1228736Y849986D01*
X1228736Y852150D02*
X1214744Y852150D01*
X1214744Y854314D02*
X1228736Y854314D01*
X1228736Y856478D02*
X1214744Y856478D01*
X1214744Y858642D02*
X1228736Y858642D01*
X1228736Y860806D02*
X1214744Y860806D01*
X1214744Y862970D02*
X1228736Y862970D01*
X1228736Y865134D02*
X1214744Y865134D01*
X1214744Y867298D02*
X1228736Y867298D01*
X1228736Y869462D02*
X1214744Y869462D01*
X1214744Y871626D02*
X1228736Y871626D01*
X1290944Y832674D02*
X1304936Y832674D01*
X1290944Y832674D02*
X1290944Y871666D01*
X1304936Y871666D01*
X1304936Y832674D01*
X1304936Y834838D02*
X1290944Y834838D01*
X1290944Y837002D02*
X1304936Y837002D01*
X1304936Y839166D02*
X1290944Y839166D01*
X1290944Y841330D02*
X1304936Y841330D01*
X1304936Y843494D02*
X1290944Y843494D01*
X1290944Y845658D02*
X1304936Y845658D01*
X1304936Y847822D02*
X1290944Y847822D01*
X1290944Y849986D02*
X1304936Y849986D01*
X1304936Y852150D02*
X1290944Y852150D01*
X1290944Y854314D02*
X1304936Y854314D01*
X1304936Y856478D02*
X1290944Y856478D01*
X1290944Y858642D02*
X1304936Y858642D01*
X1304936Y860806D02*
X1290944Y860806D01*
X1290944Y862970D02*
X1304936Y862970D01*
X1304936Y865134D02*
X1290944Y865134D01*
X1290944Y867298D02*
X1304936Y867298D01*
X1304936Y869462D02*
X1290944Y869462D01*
X1290944Y871626D02*
X1304936Y871626D01*
X1341744Y832674D02*
X1355736Y832674D01*
X1341744Y832674D02*
X1341744Y871666D01*
X1355736Y871666D01*
X1355736Y832674D01*
X1355736Y834838D02*
X1341744Y834838D01*
X1341744Y837002D02*
X1355736Y837002D01*
X1355736Y839166D02*
X1341744Y839166D01*
X1341744Y841330D02*
X1355736Y841330D01*
X1355736Y843494D02*
X1341744Y843494D01*
X1341744Y845658D02*
X1355736Y845658D01*
X1355736Y847822D02*
X1341744Y847822D01*
X1341744Y849986D02*
X1355736Y849986D01*
X1355736Y852150D02*
X1341744Y852150D01*
X1341744Y854314D02*
X1355736Y854314D01*
X1355736Y856478D02*
X1341744Y856478D01*
X1341744Y858642D02*
X1355736Y858642D01*
X1355736Y860806D02*
X1341744Y860806D01*
X1341744Y862970D02*
X1355736Y862970D01*
X1355736Y865134D02*
X1341744Y865134D01*
X1341744Y867298D02*
X1355736Y867298D01*
X1355736Y869462D02*
X1341744Y869462D01*
X1341744Y871626D02*
X1355736Y871626D01*
D14*
X1094740Y330200D03*
X1094740Y355600D03*
X1094740Y381000D03*
X1094740Y406400D03*
D16*
X1138834Y747192D03*
X1380846Y747192D03*
D17*
X1132840Y127000D03*
D18*
X1194687Y95756D02*
X1200279Y95756D01*
X1194687Y95756D02*
X1194687Y107444D01*
X1200279Y107444D01*
X1200279Y95756D01*
X1200279Y97925D02*
X1194687Y97925D01*
X1194687Y100094D02*
X1200279Y100094D01*
X1200279Y102263D02*
X1194687Y102263D01*
X1194687Y104432D02*
X1200279Y104432D01*
X1200279Y106601D02*
X1194687Y106601D01*
X1205101Y95756D02*
X1210693Y95756D01*
X1205101Y95756D02*
X1205101Y107444D01*
X1210693Y107444D01*
X1210693Y95756D01*
X1210693Y97925D02*
X1205101Y97925D01*
X1205101Y100094D02*
X1210693Y100094D01*
X1210693Y102263D02*
X1205101Y102263D01*
X1205101Y104432D02*
X1210693Y104432D01*
X1210693Y106601D02*
X1205101Y106601D01*
X1308987Y95756D02*
X1314579Y95756D01*
X1308987Y95756D02*
X1308987Y107444D01*
X1314579Y107444D01*
X1314579Y95756D01*
X1314579Y97925D02*
X1308987Y97925D01*
X1308987Y100094D02*
X1314579Y100094D01*
X1314579Y102263D02*
X1308987Y102263D01*
X1308987Y104432D02*
X1314579Y104432D01*
X1314579Y106601D02*
X1308987Y106601D01*
X1319401Y95756D02*
X1324993Y95756D01*
X1319401Y95756D02*
X1319401Y107444D01*
X1324993Y107444D01*
X1324993Y95756D01*
X1324993Y97925D02*
X1319401Y97925D01*
X1319401Y100094D02*
X1324993Y100094D01*
X1324993Y102263D02*
X1319401Y102263D01*
X1319401Y104432D02*
X1324993Y104432D01*
X1324993Y106601D02*
X1319401Y106601D01*
D19*
X1384840Y266700D03*
D20*
X1134840Y266700D03*
D18*
X1400808Y107444D02*
X1406400Y107444D01*
X1406400Y95756D01*
X1400808Y95756D01*
X1400808Y107444D01*
X1400808Y97925D02*
X1406400Y97925D01*
X1406400Y100094D02*
X1400808Y100094D01*
X1400808Y102263D02*
X1406400Y102263D01*
X1406400Y104432D02*
X1400808Y104432D01*
X1400808Y106601D02*
X1406400Y106601D01*
X1395986Y107444D02*
X1390394Y107444D01*
X1395986Y107444D02*
X1395986Y95756D01*
X1390394Y95756D01*
X1390394Y107444D01*
X1390394Y97925D02*
X1395986Y97925D01*
X1395986Y100094D02*
X1390394Y100094D01*
X1390394Y102263D02*
X1395986Y102263D01*
X1395986Y104432D02*
X1390394Y104432D01*
X1390394Y106601D02*
X1395986Y106601D01*
X1385572Y107444D02*
X1379980Y107444D01*
X1385572Y107444D02*
X1385572Y95756D01*
X1379980Y95756D01*
X1379980Y107444D01*
X1379980Y97925D02*
X1385572Y97925D01*
X1385572Y100094D02*
X1379980Y100094D01*
X1379980Y102263D02*
X1385572Y102263D01*
X1385572Y104432D02*
X1379980Y104432D01*
X1379980Y106601D02*
X1385572Y106601D01*
D21*
X1246944Y33556D02*
X1246944Y4544D01*
X1246944Y33556D02*
X1254956Y33556D01*
X1254956Y4544D01*
X1246944Y4544D01*
X1246944Y6690D02*
X1254956Y6690D01*
X1254956Y8836D02*
X1246944Y8836D01*
X1246944Y10982D02*
X1254956Y10982D01*
X1254956Y13128D02*
X1246944Y13128D01*
X1246944Y15274D02*
X1254956Y15274D01*
X1254956Y17420D02*
X1246944Y17420D01*
X1246944Y19566D02*
X1254956Y19566D01*
X1254956Y21712D02*
X1246944Y21712D01*
X1246944Y23858D02*
X1254956Y23858D01*
X1254956Y26004D02*
X1246944Y26004D01*
X1246944Y28150D02*
X1254956Y28150D01*
X1254956Y30296D02*
X1246944Y30296D01*
X1246944Y32442D02*
X1254956Y32442D01*
X1229164Y33556D02*
X1229164Y4544D01*
X1229164Y33556D02*
X1237176Y33556D01*
X1237176Y4544D01*
X1229164Y4544D01*
X1229164Y6690D02*
X1237176Y6690D01*
X1237176Y8836D02*
X1229164Y8836D01*
X1229164Y10982D02*
X1237176Y10982D01*
X1237176Y13128D02*
X1229164Y13128D01*
X1229164Y15274D02*
X1237176Y15274D01*
X1237176Y17420D02*
X1229164Y17420D01*
X1229164Y19566D02*
X1237176Y19566D01*
X1237176Y21712D02*
X1229164Y21712D01*
X1229164Y23858D02*
X1237176Y23858D01*
X1237176Y26004D02*
X1229164Y26004D01*
X1229164Y28150D02*
X1237176Y28150D01*
X1237176Y30296D02*
X1229164Y30296D01*
X1229164Y32442D02*
X1237176Y32442D01*
X1264724Y33556D02*
X1264724Y4544D01*
X1264724Y33556D02*
X1272736Y33556D01*
X1272736Y4544D01*
X1264724Y4544D01*
X1264724Y6690D02*
X1272736Y6690D01*
X1272736Y8836D02*
X1264724Y8836D01*
X1264724Y10982D02*
X1272736Y10982D01*
X1272736Y13128D02*
X1264724Y13128D01*
X1264724Y15274D02*
X1272736Y15274D01*
X1272736Y17420D02*
X1264724Y17420D01*
X1264724Y19566D02*
X1272736Y19566D01*
X1272736Y21712D02*
X1264724Y21712D01*
X1264724Y23858D02*
X1272736Y23858D01*
X1272736Y26004D02*
X1264724Y26004D01*
X1264724Y28150D02*
X1272736Y28150D01*
X1272736Y30296D02*
X1264724Y30296D01*
X1264724Y32442D02*
X1272736Y32442D01*
X1282504Y33556D02*
X1282504Y4544D01*
X1282504Y33556D02*
X1290516Y33556D01*
X1290516Y4544D01*
X1282504Y4544D01*
X1282504Y6690D02*
X1290516Y6690D01*
X1290516Y8836D02*
X1282504Y8836D01*
X1282504Y10982D02*
X1290516Y10982D01*
X1290516Y13128D02*
X1282504Y13128D01*
X1282504Y15274D02*
X1290516Y15274D01*
X1290516Y17420D02*
X1282504Y17420D01*
X1282504Y19566D02*
X1290516Y19566D01*
X1290516Y21712D02*
X1282504Y21712D01*
X1282504Y23858D02*
X1290516Y23858D01*
X1290516Y26004D02*
X1282504Y26004D01*
X1282504Y28150D02*
X1290516Y28150D01*
X1290516Y30296D02*
X1282504Y30296D01*
X1282504Y32442D02*
X1290516Y32442D01*
D10*
X68580Y909955D03*
X1368425Y909955D03*
D22*
X59525Y-20955D02*
X59528Y-20733D01*
X59536Y-20511D01*
X59550Y-20289D01*
X59569Y-20067D01*
X59593Y-19847D01*
X59623Y-19626D01*
X59658Y-19407D01*
X59699Y-19188D01*
X59745Y-18971D01*
X59796Y-18755D01*
X59853Y-18540D01*
X59915Y-18326D01*
X59982Y-18115D01*
X60054Y-17904D01*
X60132Y-17696D01*
X60214Y-17490D01*
X60302Y-17286D01*
X60394Y-17083D01*
X60492Y-16884D01*
X60594Y-16687D01*
X60701Y-16492D01*
X60813Y-16300D01*
X60930Y-16111D01*
X61051Y-15924D01*
X61177Y-15741D01*
X61307Y-15561D01*
X61442Y-15384D01*
X61580Y-15211D01*
X61723Y-15041D01*
X61871Y-14874D01*
X62022Y-14711D01*
X62177Y-14552D01*
X62336Y-14397D01*
X62499Y-14246D01*
X62666Y-14098D01*
X62836Y-13955D01*
X63009Y-13817D01*
X63186Y-13682D01*
X63366Y-13552D01*
X63549Y-13426D01*
X63736Y-13305D01*
X63925Y-13188D01*
X64117Y-13076D01*
X64312Y-12969D01*
X64509Y-12867D01*
X64708Y-12769D01*
X64911Y-12677D01*
X65115Y-12589D01*
X65321Y-12507D01*
X65529Y-12429D01*
X65740Y-12357D01*
X65951Y-12290D01*
X66165Y-12228D01*
X66380Y-12171D01*
X66596Y-12120D01*
X66813Y-12074D01*
X67032Y-12033D01*
X67251Y-11998D01*
X67472Y-11968D01*
X67692Y-11944D01*
X67914Y-11925D01*
X68136Y-11911D01*
X68358Y-11903D01*
X68580Y-11900D01*
X68802Y-11903D01*
X69024Y-11911D01*
X69246Y-11925D01*
X69468Y-11944D01*
X69688Y-11968D01*
X69909Y-11998D01*
X70128Y-12033D01*
X70347Y-12074D01*
X70564Y-12120D01*
X70780Y-12171D01*
X70995Y-12228D01*
X71209Y-12290D01*
X71420Y-12357D01*
X71631Y-12429D01*
X71839Y-12507D01*
X72045Y-12589D01*
X72249Y-12677D01*
X72452Y-12769D01*
X72651Y-12867D01*
X72848Y-12969D01*
X73043Y-13076D01*
X73235Y-13188D01*
X73424Y-13305D01*
X73611Y-13426D01*
X73794Y-13552D01*
X73974Y-13682D01*
X74151Y-13817D01*
X74324Y-13955D01*
X74494Y-14098D01*
X74661Y-14246D01*
X74824Y-14397D01*
X74983Y-14552D01*
X75138Y-14711D01*
X75289Y-14874D01*
X75437Y-15041D01*
X75580Y-15211D01*
X75718Y-15384D01*
X75853Y-15561D01*
X75983Y-15741D01*
X76109Y-15924D01*
X76230Y-16111D01*
X76347Y-16300D01*
X76459Y-16492D01*
X76566Y-16687D01*
X76668Y-16884D01*
X76766Y-17083D01*
X76858Y-17286D01*
X76946Y-17490D01*
X77028Y-17696D01*
X77106Y-17904D01*
X77178Y-18115D01*
X77245Y-18326D01*
X77307Y-18540D01*
X77364Y-18755D01*
X77415Y-18971D01*
X77461Y-19188D01*
X77502Y-19407D01*
X77537Y-19626D01*
X77567Y-19847D01*
X77591Y-20067D01*
X77610Y-20289D01*
X77624Y-20511D01*
X77632Y-20733D01*
X77635Y-20955D01*
X77632Y-21177D01*
X77624Y-21399D01*
X77610Y-21621D01*
X77591Y-21843D01*
X77567Y-22063D01*
X77537Y-22284D01*
X77502Y-22503D01*
X77461Y-22722D01*
X77415Y-22939D01*
X77364Y-23155D01*
X77307Y-23370D01*
X77245Y-23584D01*
X77178Y-23795D01*
X77106Y-24006D01*
X77028Y-24214D01*
X76946Y-24420D01*
X76858Y-24624D01*
X76766Y-24827D01*
X76668Y-25026D01*
X76566Y-25223D01*
X76459Y-25418D01*
X76347Y-25610D01*
X76230Y-25799D01*
X76109Y-25986D01*
X75983Y-26169D01*
X75853Y-26349D01*
X75718Y-26526D01*
X75580Y-26699D01*
X75437Y-26869D01*
X75289Y-27036D01*
X75138Y-27199D01*
X74983Y-27358D01*
X74824Y-27513D01*
X74661Y-27664D01*
X74494Y-27812D01*
X74324Y-27955D01*
X74151Y-28093D01*
X73974Y-28228D01*
X73794Y-28358D01*
X73611Y-28484D01*
X73424Y-28605D01*
X73235Y-28722D01*
X73043Y-28834D01*
X72848Y-28941D01*
X72651Y-29043D01*
X72452Y-29141D01*
X72249Y-29233D01*
X72045Y-29321D01*
X71839Y-29403D01*
X71631Y-29481D01*
X71420Y-29553D01*
X71209Y-29620D01*
X70995Y-29682D01*
X70780Y-29739D01*
X70564Y-29790D01*
X70347Y-29836D01*
X70128Y-29877D01*
X69909Y-29912D01*
X69688Y-29942D01*
X69468Y-29966D01*
X69246Y-29985D01*
X69024Y-29999D01*
X68802Y-30007D01*
X68580Y-30010D01*
X68358Y-30007D01*
X68136Y-29999D01*
X67914Y-29985D01*
X67692Y-29966D01*
X67472Y-29942D01*
X67251Y-29912D01*
X67032Y-29877D01*
X66813Y-29836D01*
X66596Y-29790D01*
X66380Y-29739D01*
X66165Y-29682D01*
X65951Y-29620D01*
X65740Y-29553D01*
X65529Y-29481D01*
X65321Y-29403D01*
X65115Y-29321D01*
X64911Y-29233D01*
X64708Y-29141D01*
X64509Y-29043D01*
X64312Y-28941D01*
X64117Y-28834D01*
X63925Y-28722D01*
X63736Y-28605D01*
X63549Y-28484D01*
X63366Y-28358D01*
X63186Y-28228D01*
X63009Y-28093D01*
X62836Y-27955D01*
X62666Y-27812D01*
X62499Y-27664D01*
X62336Y-27513D01*
X62177Y-27358D01*
X62022Y-27199D01*
X61871Y-27036D01*
X61723Y-26869D01*
X61580Y-26699D01*
X61442Y-26526D01*
X61307Y-26349D01*
X61177Y-26169D01*
X61051Y-25986D01*
X60930Y-25799D01*
X60813Y-25610D01*
X60701Y-25418D01*
X60594Y-25223D01*
X60492Y-25026D01*
X60394Y-24827D01*
X60302Y-24624D01*
X60214Y-24420D01*
X60132Y-24214D01*
X60054Y-24006D01*
X59982Y-23795D01*
X59915Y-23584D01*
X59853Y-23370D01*
X59796Y-23155D01*
X59745Y-22939D01*
X59699Y-22722D01*
X59658Y-22503D01*
X59623Y-22284D01*
X59593Y-22063D01*
X59569Y-21843D01*
X59550Y-21621D01*
X59536Y-21399D01*
X59528Y-21177D01*
X59525Y-20955D01*
D23*
X68580Y-20955D03*
M02*
